<mxfile host="app.diagrams.net" agent="Mozilla/5.0 (Macintosh; Intel Mac OS X 10_15_7) AppleWebKit/537.36 (KHTML, like Gecko) Chrome/129.0.0.0 Safari/537.36" version="24.7.7" pages="3">
  <diagram id="Cx_tmGVktqEy4l7MGV1t" name="Overview">
    <mxGraphModel dx="4394" dy="3701" grid="0" gridSize="10" guides="1" tooltips="1" connect="1" arrows="1" fold="1" page="0" pageScale="1" pageWidth="850" pageHeight="1100" background="#09555B" math="0" shadow="0">
      <root>
        <mxCell id="0" />
        <mxCell id="1" parent="0" />
        <mxCell id="3FRn_oGSm7d69mBdq1QQ-560" style="edgeStyle=entityRelationEdgeStyle;sketch=0;orthogonalLoop=1;jettySize=auto;html=1;shadow=0;labelBackgroundColor=#09555B;fontFamily=Verdana;fontSize=8;fontColor=#FFFFFF;endArrow=openThin;endFill=0;sourcePerimeterSpacing=4;targetPerimeterSpacing=4;strokeColor=#EEEEEE;strokeWidth=3;" parent="1" source="3FRn_oGSm7d69mBdq1QQ-558" target="3FRn_oGSm7d69mBdq1QQ-370" edge="1">
          <mxGeometry relative="1" as="geometry" />
        </mxCell>
        <mxCell id="3FRn_oGSm7d69mBdq1QQ-429" style="edgeStyle=entityRelationEdgeStyle;sketch=0;orthogonalLoop=1;jettySize=auto;html=1;shadow=0;labelBackgroundColor=#09555B;fontFamily=Verdana;fontSize=8;fontColor=#FFFFFF;endArrow=openThin;endFill=0;sourcePerimeterSpacing=4;targetPerimeterSpacing=4;strokeColor=#EEEEEE;strokeWidth=3;" parent="1" source="3FRn_oGSm7d69mBdq1QQ-344" target="321" edge="1">
          <mxGeometry relative="1" as="geometry" />
        </mxCell>
        <mxCell id="3FRn_oGSm7d69mBdq1QQ-430" style="sketch=0;orthogonalLoop=1;jettySize=auto;html=1;shadow=0;labelBackgroundColor=#09555B;fontFamily=Verdana;fontSize=8;fontColor=#FFFFFF;endArrow=openThin;endFill=0;sourcePerimeterSpacing=4;targetPerimeterSpacing=4;strokeColor=#EEEEEE;strokeWidth=3;exitX=0.5;exitY=1;exitDx=0;exitDy=0;" parent="1" source="3FRn_oGSm7d69mBdq1QQ-344" target="303" edge="1">
          <mxGeometry relative="1" as="geometry" />
        </mxCell>
        <mxCell id="232" style="edgeStyle=entityRelationEdgeStyle;sketch=0;orthogonalLoop=1;jettySize=auto;html=1;shadow=0;labelBackgroundColor=#09555B;fontFamily=Verdana;fontSize=8;fontColor=#FFFFFF;endArrow=openThin;endFill=0;sourcePerimeterSpacing=4;targetPerimeterSpacing=4;strokeColor=#EEEEEE;strokeWidth=3;dashed=1;dashPattern=1 1;" parent="1" source="202" target="191" edge="1">
          <mxGeometry relative="1" as="geometry" />
        </mxCell>
        <mxCell id="233" style="edgeStyle=entityRelationEdgeStyle;sketch=0;orthogonalLoop=1;jettySize=auto;html=1;shadow=0;labelBackgroundColor=#09555B;fontFamily=Verdana;fontSize=8;fontColor=#FFFFFF;endArrow=openThin;endFill=0;sourcePerimeterSpacing=4;targetPerimeterSpacing=4;strokeColor=#EEEEEE;strokeWidth=3;dashed=1;dashPattern=1 1;" parent="1" source="205" target="191" edge="1">
          <mxGeometry relative="1" as="geometry" />
        </mxCell>
        <mxCell id="231" style="edgeStyle=orthogonalEdgeStyle;sketch=0;orthogonalLoop=1;jettySize=auto;html=1;shadow=0;labelBackgroundColor=#09555B;fontFamily=Verdana;fontSize=8;fontColor=#FFFFFF;endArrow=openThin;endFill=0;sourcePerimeterSpacing=4;targetPerimeterSpacing=4;strokeColor=#EEEEEE;strokeWidth=3;curved=1;dashed=1;dashPattern=1 1;" parent="1" source="183" target="173" edge="1">
          <mxGeometry relative="1" as="geometry">
            <Array as="points">
              <mxPoint x="19" y="-1083" />
              <mxPoint x="19" y="-1451" />
            </Array>
          </mxGeometry>
        </mxCell>
        <mxCell id="210" style="edgeStyle=entityRelationEdgeStyle;sketch=0;orthogonalLoop=1;jettySize=auto;html=1;shadow=0;labelBackgroundColor=#09555B;fontFamily=Verdana;fontSize=8;fontColor=#FFFFFF;endArrow=openThin;endFill=0;sourcePerimeterSpacing=4;targetPerimeterSpacing=4;strokeColor=#EEEEEE;strokeWidth=3;" parent="1" source="170" target="167" edge="1">
          <mxGeometry relative="1" as="geometry" />
        </mxCell>
        <mxCell id="234" style="edgeStyle=entityRelationEdgeStyle;sketch=0;orthogonalLoop=1;jettySize=auto;html=1;shadow=0;labelBackgroundColor=#09555B;fontFamily=Verdana;fontSize=8;fontColor=#FFFFFF;endArrow=openThin;endFill=0;sourcePerimeterSpacing=4;targetPerimeterSpacing=4;strokeColor=#EEEEEE;strokeWidth=3;" parent="1" source="188" target="167" edge="1">
          <mxGeometry relative="1" as="geometry" />
        </mxCell>
        <mxCell id="230" style="edgeStyle=elbowEdgeStyle;sketch=0;orthogonalLoop=1;jettySize=auto;html=1;shadow=0;labelBackgroundColor=#09555B;fontFamily=Verdana;fontSize=8;fontColor=#FFFFFF;endArrow=openThin;endFill=0;sourcePerimeterSpacing=4;targetPerimeterSpacing=4;strokeColor=#EEEEEE;strokeWidth=3;" parent="1" source="212" target="225" edge="1">
          <mxGeometry relative="1" as="geometry" />
        </mxCell>
        <mxCell id="212" value="Providers" style="swimlane;rounded=1;fillColor=#1ba1e2;strokeColor=#006EAF;fontColor=#ffffff;" parent="1" vertex="1">
          <mxGeometry x="-263" y="-1165" width="188" height="301" as="geometry">
            <mxRectangle x="362" y="106" width="89" height="23" as="alternateBounds" />
          </mxGeometry>
        </mxCell>
        <mxCell id="213" style="edgeStyle=orthogonalEdgeStyle;orthogonalLoop=1;jettySize=auto;html=1;entryX=0;entryY=0.5;entryDx=0;entryDy=0;rounded=0;curved=1;exitX=0;exitY=0.5;exitDx=0;exitDy=0;dashed=1;labelBackgroundColor=#09555B;strokeColor=#EEEEEE;fontColor=#FFFFFF;" parent="212" edge="1">
          <mxGeometry relative="1" as="geometry">
            <mxPoint x="25" y="110.99999999999989" as="sourcePoint" />
          </mxGeometry>
        </mxCell>
        <mxCell id="182" value="" style="group;perimeterSpacing=4;strokeWidth=7;" parent="212" vertex="1" connectable="0">
          <mxGeometry x="27" y="52" width="120" height="60" as="geometry" />
        </mxCell>
        <mxCell id="183" value="" style="rounded=1;whiteSpace=wrap;html=1;shadow=0;glass=0;sketch=0;fillColor=#B1DDF0;strokeColor=#BAC8D3;fontColor=#182E3E;" parent="182" vertex="1">
          <mxGeometry width="120" height="60" as="geometry" />
        </mxCell>
        <mxCell id="184" value="&lt;font color=&quot;#000000&quot; face=&quot;Verdana&quot;&gt;BitcoinProvider&lt;/font&gt;" style="text;html=1;strokeColor=none;fillColor=none;align=center;verticalAlign=middle;whiteSpace=wrap;rounded=0;shadow=0;glass=0;sketch=0;fontColor=#182E3E;" parent="182" vertex="1">
          <mxGeometry x="7" y="22" width="106" height="16" as="geometry" />
        </mxCell>
        <mxCell id="201" value="" style="group;perimeterSpacing=4;strokeColor=none;strokeWidth=7;fontColor=#182E3E;" parent="212" vertex="1" connectable="0">
          <mxGeometry x="27" y="129" width="120" height="60" as="geometry" />
        </mxCell>
        <mxCell id="202" value="" style="rounded=1;whiteSpace=wrap;html=1;shadow=0;glass=0;sketch=0;fillColor=#B1DDF0;strokeColor=#BAC8D3;fontColor=#182E3E;" parent="201" vertex="1">
          <mxGeometry width="120" height="60" as="geometry" />
        </mxCell>
        <mxCell id="203" value="&lt;font color=&quot;#000000&quot; face=&quot;Verdana&quot;&gt;JsonRpcBatch - Internal&lt;/font&gt;" style="text;html=1;strokeColor=none;fillColor=none;align=center;verticalAlign=middle;whiteSpace=wrap;rounded=0;shadow=0;glass=0;sketch=0;fontColor=#182E3E;" parent="201" vertex="1">
          <mxGeometry x="7" y="22" width="106" height="16" as="geometry" />
        </mxCell>
        <mxCell id="204" value="" style="group;perimeterSpacing=4;strokeColor=none;strokeWidth=7;fontColor=#182E3E;" parent="212" vertex="1" connectable="0">
          <mxGeometry x="27" y="208" width="120" height="60" as="geometry" />
        </mxCell>
        <mxCell id="205" value="" style="rounded=1;whiteSpace=wrap;html=1;shadow=0;glass=0;sketch=0;fillColor=#B1DDF0;strokeColor=#BAC8D3;fontColor=#182E3E;" parent="204" vertex="1">
          <mxGeometry width="120" height="60" as="geometry" />
        </mxCell>
        <mxCell id="206" value="&lt;font color=&quot;#000000&quot; face=&quot;Verdana&quot;&gt;InfuraProvider&lt;/font&gt;" style="text;html=1;strokeColor=none;fillColor=none;align=center;verticalAlign=middle;whiteSpace=wrap;rounded=0;shadow=0;glass=0;sketch=0;fontColor=#182E3E;" parent="204" vertex="1">
          <mxGeometry x="7" y="22" width="106" height="16" as="geometry" />
        </mxCell>
        <mxCell id="313" style="edgeStyle=entityRelationEdgeStyle;rounded=1;orthogonalLoop=1;jettySize=auto;html=1;shadow=0;fontFamily=Verdana;fontSize=8;fontColor=#FFFFFF;strokeColor=#EEEEEE;strokeWidth=3;labelBackgroundColor=#09555B;endFill=0;endArrow=openThin;targetPerimeterSpacing=4;sourcePerimeterSpacing=4;sketch=0;" parent="1" source="300" target="293" edge="1">
          <mxGeometry relative="1" as="geometry" />
        </mxCell>
        <mxCell id="300" value="Providers" style="swimlane;rounded=1;fillColor=#1ba1e2;strokeColor=#006EAF;fontColor=#ffffff;" parent="1" vertex="1">
          <mxGeometry x="-1427" y="-1374" width="188" height="209" as="geometry">
            <mxRectangle x="362" y="106" width="89" height="23" as="alternateBounds" />
          </mxGeometry>
        </mxCell>
        <mxCell id="301" style="edgeStyle=orthogonalEdgeStyle;orthogonalLoop=1;jettySize=auto;html=1;entryX=0;entryY=0.5;entryDx=0;entryDy=0;rounded=0;curved=1;exitX=0;exitY=0.5;exitDx=0;exitDy=0;dashed=1;labelBackgroundColor=#09555B;strokeColor=#EEEEEE;fontColor=#FFFFFF;" parent="300" edge="1">
          <mxGeometry relative="1" as="geometry">
            <mxPoint x="25" y="110.99999999999989" as="sourcePoint" />
          </mxGeometry>
        </mxCell>
        <mxCell id="302" value="" style="group;perimeterSpacing=4;strokeWidth=7;" parent="300" vertex="1" connectable="0">
          <mxGeometry x="27" y="52" width="120" height="60" as="geometry" />
        </mxCell>
        <mxCell id="303" value="" style="rounded=1;whiteSpace=wrap;html=1;shadow=0;glass=0;sketch=0;fillColor=#B1DDF0;strokeColor=#BAC8D3;fontColor=#182E3E;" parent="302" vertex="1">
          <mxGeometry width="120" height="60" as="geometry" />
        </mxCell>
        <mxCell id="304" value="&lt;font color=&quot;#000000&quot; face=&quot;Verdana&quot;&gt;GlacierNft&lt;br&gt;Provider&lt;/font&gt;" style="text;html=1;strokeColor=none;fillColor=none;align=center;verticalAlign=middle;whiteSpace=wrap;rounded=0;shadow=0;glass=0;sketch=0;fontColor=#182E3E;" parent="302" vertex="1">
          <mxGeometry x="7" y="22" width="106" height="16" as="geometry" />
        </mxCell>
        <mxCell id="305" value="" style="group;perimeterSpacing=4;strokeColor=none;strokeWidth=7;fontColor=#182E3E;" parent="300" vertex="1" connectable="0">
          <mxGeometry x="27" y="129" width="120" height="60" as="geometry" />
        </mxCell>
        <mxCell id="306" value="" style="rounded=1;whiteSpace=wrap;html=1;shadow=0;glass=0;sketch=0;fillColor=#B1DDF0;strokeColor=#BAC8D3;fontColor=#182E3E;" parent="305" vertex="1">
          <mxGeometry width="120" height="60" as="geometry" />
        </mxCell>
        <mxCell id="307" value="&lt;font color=&quot;#000000&quot; face=&quot;Verdana&quot;&gt;CovalentNft&lt;br&gt;Provider&lt;/font&gt;" style="text;html=1;strokeColor=none;fillColor=none;align=center;verticalAlign=middle;whiteSpace=wrap;rounded=0;shadow=0;glass=0;sketch=0;fontColor=#182E3E;" parent="305" vertex="1">
          <mxGeometry x="7" y="22" width="106" height="16" as="geometry" />
        </mxCell>
        <mxCell id="96" value="Store" style="swimlane;rounded=1;fillColor=#a0522d;strokeColor=#6D1F00;fontColor=#ffffff;fontFamily=Verdana;" parent="1" vertex="1">
          <mxGeometry x="-953" y="-1613" width="148" height="517" as="geometry">
            <mxRectangle x="362" y="106" width="89" height="23" as="alternateBounds" />
          </mxGeometry>
        </mxCell>
        <mxCell id="97" style="edgeStyle=orthogonalEdgeStyle;orthogonalLoop=1;jettySize=auto;html=1;entryX=0;entryY=0.5;entryDx=0;entryDy=0;rounded=0;curved=1;exitX=0;exitY=0.5;exitDx=0;exitDy=0;dashed=1;labelBackgroundColor=#09555B;strokeColor=#EEEEEE;fontColor=#FFFFFF;" parent="96" edge="1">
          <mxGeometry relative="1" as="geometry">
            <mxPoint x="25" y="110.99999999999989" as="sourcePoint" />
          </mxGeometry>
        </mxCell>
        <mxCell id="134" value="" style="group;fontColor=#182E3E;" parent="96" vertex="1" connectable="0">
          <mxGeometry x="14.5" y="267" width="120" height="60" as="geometry" />
        </mxCell>
        <mxCell id="135" value="" style="rounded=1;whiteSpace=wrap;html=1;shadow=0;glass=0;sketch=0;fillColor=#B1DDF0;strokeColor=#BAC8D3;fontColor=#182E3E;" parent="134" vertex="1">
          <mxGeometry width="120" height="60" as="geometry" />
        </mxCell>
        <mxCell id="136" value="&lt;font color=&quot;#000000&quot; face=&quot;Verdana&quot;&gt;activeAccount&lt;/font&gt;" style="text;html=1;strokeColor=none;fillColor=none;align=center;verticalAlign=middle;whiteSpace=wrap;rounded=0;shadow=0;glass=0;sketch=0;fontColor=#182E3E;" parent="134" vertex="1">
          <mxGeometry x="7" y="22" width="106" height="16" as="geometry" />
        </mxCell>
        <mxCell id="314" value="" style="group;fontColor=#182E3E;" parent="96" vertex="1" connectable="0">
          <mxGeometry x="13.5" y="340" width="120" height="60" as="geometry" />
        </mxCell>
        <mxCell id="315" value="" style="rounded=1;whiteSpace=wrap;html=1;shadow=0;glass=0;sketch=0;fillColor=#B1DDF0;strokeColor=#BAC8D3;fontColor=#182E3E;" parent="314" vertex="1">
          <mxGeometry width="120" height="60" as="geometry" />
        </mxCell>
        <mxCell id="316" value="&lt;font color=&quot;#000000&quot; face=&quot;Verdana&quot;&gt;nftCollection&lt;/font&gt;" style="text;html=1;strokeColor=none;fillColor=none;align=center;verticalAlign=middle;whiteSpace=wrap;rounded=0;shadow=0;glass=0;sketch=0;fontColor=#182E3E;" parent="314" vertex="1">
          <mxGeometry x="7" y="22" width="106" height="16" as="geometry" />
        </mxCell>
        <mxCell id="132" value="" style="group;fontColor=#182E3E;" parent="96" vertex="1" connectable="0">
          <mxGeometry x="13.5" y="196" width="120" height="60" as="geometry" />
        </mxCell>
        <mxCell id="130" value="" style="rounded=1;whiteSpace=wrap;html=1;shadow=0;glass=0;sketch=0;fillColor=#B1DDF0;strokeColor=#BAC8D3;fontColor=#182E3E;" parent="132" vertex="1">
          <mxGeometry width="120" height="60" as="geometry" />
        </mxCell>
        <mxCell id="131" value="&lt;font color=&quot;#000000&quot; face=&quot;Verdana&quot;&gt;network&lt;/font&gt;" style="text;html=1;strokeColor=none;fillColor=none;align=center;verticalAlign=middle;whiteSpace=wrap;rounded=0;shadow=0;glass=0;sketch=0;fontColor=#182E3E;" parent="132" vertex="1">
          <mxGeometry x="7" y="22" width="106" height="16" as="geometry" />
        </mxCell>
        <mxCell id="3FRn_oGSm7d69mBdq1QQ-360" value="" style="group;fontColor=#182E3E;" parent="96" vertex="1" connectable="0">
          <mxGeometry x="14.5" y="117" width="120" height="60" as="geometry" />
        </mxCell>
        <mxCell id="3FRn_oGSm7d69mBdq1QQ-361" value="" style="rounded=1;whiteSpace=wrap;html=1;shadow=0;glass=0;sketch=0;fillColor=#B1DDF0;strokeColor=#BAC8D3;fontColor=#182E3E;" parent="3FRn_oGSm7d69mBdq1QQ-360" vertex="1">
          <mxGeometry width="120" height="60" as="geometry" />
        </mxCell>
        <mxCell id="3FRn_oGSm7d69mBdq1QQ-362" value="&lt;font color=&quot;#000000&quot; face=&quot;Verdana&quot;&gt;transaction&lt;/font&gt;" style="text;html=1;strokeColor=none;fillColor=none;align=center;verticalAlign=middle;whiteSpace=wrap;rounded=0;shadow=0;glass=0;sketch=0;fontColor=#182E3E;" parent="3FRn_oGSm7d69mBdq1QQ-360" vertex="1">
          <mxGeometry x="7" y="22" width="106" height="16" as="geometry" />
        </mxCell>
        <UserObject label="" id="3FRn_oGSm7d69mBdq1QQ-486">
          <mxCell style="group;fontColor=#182E3E;" parent="96" vertex="1" connectable="0">
            <mxGeometry x="13.5" y="41" width="120" height="60" as="geometry" />
          </mxCell>
        </UserObject>
        <mxCell id="3FRn_oGSm7d69mBdq1QQ-487" value="" style="rounded=1;whiteSpace=wrap;html=1;shadow=0;glass=0;sketch=0;fillColor=#B1DDF0;strokeColor=#BAC8D3;fontColor=#182E3E;" parent="3FRn_oGSm7d69mBdq1QQ-486" vertex="1">
          <mxGeometry width="120" height="60" as="geometry" />
        </mxCell>
        <mxCell id="3FRn_oGSm7d69mBdq1QQ-488" value="&lt;font color=&quot;#000000&quot; face=&quot;Verdana&quot;&gt;watchlist&lt;br&gt;&lt;/font&gt;" style="text;html=1;strokeColor=none;fillColor=none;align=center;verticalAlign=middle;whiteSpace=wrap;rounded=0;shadow=0;glass=0;sketch=0;fontColor=#182E3E;" parent="3FRn_oGSm7d69mBdq1QQ-486" vertex="1">
          <mxGeometry x="7" y="22" width="106" height="16" as="geometry" />
        </mxCell>
        <mxCell id="327" value="" style="group;fontColor=#182E3E;" parent="96" vertex="1" connectable="0">
          <mxGeometry x="13.5" y="428" width="120" height="60" as="geometry" />
        </mxCell>
        <mxCell id="328" value="" style="rounded=1;whiteSpace=wrap;html=1;shadow=0;glass=0;sketch=0;fillColor=#B1DDF0;strokeColor=#BAC8D3;fontColor=#182E3E;" parent="327" vertex="1">
          <mxGeometry width="120" height="60" as="geometry" />
        </mxCell>
        <mxCell id="329" value="&lt;font color=&quot;#000000&quot; face=&quot;Verdana&quot;&gt;dApps&lt;/font&gt;" style="text;html=1;strokeColor=none;fillColor=none;align=center;verticalAlign=middle;whiteSpace=wrap;rounded=0;shadow=0;glass=0;sketch=0;fontColor=#182E3E;" parent="327" vertex="1">
          <mxGeometry x="7" y="22" width="106" height="16" as="geometry" />
        </mxCell>
        <mxCell id="105" value="WalletService" style="swimlane;rounded=1;fillColor=#60a917;strokeColor=#2D7600;fontColor=#ffffff;fontFamily=Verdana;" parent="1" vertex="1">
          <mxGeometry x="-686" y="-1337" width="143" height="126" as="geometry">
            <mxRectangle x="362" y="106" width="89" height="23" as="alternateBounds" />
          </mxGeometry>
        </mxCell>
        <mxCell id="106" style="edgeStyle=orthogonalEdgeStyle;orthogonalLoop=1;jettySize=auto;html=1;entryX=0;entryY=0.5;entryDx=0;entryDy=0;rounded=0;curved=1;exitX=0;exitY=0.5;exitDx=0;exitDy=0;dashed=1;labelBackgroundColor=#09555B;strokeColor=#EEEEEE;fontColor=#FFFFFF;" parent="105" edge="1">
          <mxGeometry relative="1" as="geometry">
            <mxPoint x="25" y="110.99999999999989" as="sourcePoint" />
          </mxGeometry>
        </mxCell>
        <mxCell id="122" value="" style="group;fontColor=#182E3E;" parent="105" vertex="1" connectable="0">
          <mxGeometry x="10" y="44" width="120" height="60" as="geometry" />
        </mxCell>
        <mxCell id="123" value="" style="rounded=1;whiteSpace=wrap;html=1;shadow=0;glass=0;sketch=0;fillColor=#B1DDF0;strokeColor=#BAC8D3;fontColor=#182E3E;" parent="122" vertex="1">
          <mxGeometry width="120" height="60" as="geometry" />
        </mxCell>
        <mxCell id="124" value="&lt;font color=&quot;#000000&quot; face=&quot;Verdana&quot;&gt;getEvmWallet&lt;/font&gt;" style="text;html=1;strokeColor=none;fillColor=none;align=center;verticalAlign=middle;whiteSpace=wrap;rounded=0;shadow=0;glass=0;sketch=0;fontColor=#182E3E;" parent="122" vertex="1">
          <mxGeometry x="7" y="14" width="106" height="16" as="geometry" />
        </mxCell>
        <mxCell id="125" value="(accIndex, network)" style="text;strokeColor=none;fillColor=none;align=center;verticalAlign=middle;rounded=0;shadow=0;glass=0;sketch=0;fontColor=#182E3E;spacing=2;whiteSpace=wrap;html=1;fontFamily=Verdana;fontSize=8;" parent="122" vertex="1">
          <mxGeometry x="7" y="33" width="106" height="10" as="geometry" />
        </mxCell>
        <mxCell id="219" style="edgeStyle=entityRelationEdgeStyle;sketch=0;orthogonalLoop=1;jettySize=auto;html=1;shadow=0;labelBackgroundColor=#09555B;fontFamily=Verdana;fontSize=8;fontColor=#FFFFFF;endArrow=openThin;endFill=0;sourcePerimeterSpacing=4;targetPerimeterSpacing=4;strokeColor=#EEEEEE;strokeWidth=3;" parent="1" source="130" target="123" edge="1">
          <mxGeometry relative="1" as="geometry" />
        </mxCell>
        <mxCell id="161" value="BalanceService" style="swimlane;rounded=1;fillColor=#60a917;strokeColor=#2D7600;fontColor=#ffffff;fontFamily=Verdana;" parent="1" vertex="1">
          <mxGeometry x="-633" y="-1526" width="153" height="146" as="geometry">
            <mxRectangle x="362" y="106" width="89" height="23" as="alternateBounds" />
          </mxGeometry>
        </mxCell>
        <mxCell id="162" style="edgeStyle=orthogonalEdgeStyle;orthogonalLoop=1;jettySize=auto;html=1;entryX=0;entryY=0.5;entryDx=0;entryDy=0;rounded=0;curved=1;exitX=0;exitY=0.5;exitDx=0;exitDy=0;dashed=1;labelBackgroundColor=#09555B;strokeColor=#EEEEEE;fontColor=#FFFFFF;" parent="161" edge="1">
          <mxGeometry relative="1" as="geometry">
            <mxPoint x="25" y="110.99999999999989" as="sourcePoint" />
          </mxGeometry>
        </mxCell>
        <mxCell id="166" value="" style="group;fontColor=#182E3E;" parent="161" vertex="1" connectable="0">
          <mxGeometry x="16.5" y="35" width="120" height="60" as="geometry" />
        </mxCell>
        <mxCell id="167" value="" style="rounded=1;whiteSpace=wrap;html=1;shadow=0;glass=0;sketch=0;fillColor=#B1DDF0;strokeColor=#BAC8D3;fontColor=#182E3E;" parent="166" vertex="1">
          <mxGeometry width="120" height="60" as="geometry" />
        </mxCell>
        <mxCell id="168" value="&lt;font color=&quot;#000000&quot; face=&quot;Verdana&quot;&gt;getBalances&lt;/font&gt;" style="text;html=1;strokeColor=none;fillColor=none;align=center;verticalAlign=middle;whiteSpace=wrap;rounded=0;shadow=0;glass=0;sketch=0;fontColor=#182E3E;" parent="166" vertex="1">
          <mxGeometry x="7" y="14" width="106" height="16" as="geometry" />
        </mxCell>
        <mxCell id="169" value="(address, network)" style="text;strokeColor=none;fillColor=none;align=center;verticalAlign=middle;rounded=0;shadow=0;glass=0;sketch=0;fontColor=#182E3E;spacing=2;whiteSpace=wrap;html=1;fontFamily=Verdana;fontSize=8;" parent="166" vertex="1">
          <mxGeometry x="7" y="33" width="106" height="10" as="geometry" />
        </mxCell>
        <mxCell id="218" style="edgeStyle=entityRelationEdgeStyle;sketch=0;orthogonalLoop=1;jettySize=auto;html=1;shadow=0;labelBackgroundColor=#09555B;fontFamily=Verdana;fontSize=8;fontColor=#FFFFFF;endArrow=openThin;endFill=0;sourcePerimeterSpacing=4;targetPerimeterSpacing=4;strokeColor=#EEEEEE;strokeWidth=3;" parent="1" source="130" target="167" edge="1">
          <mxGeometry relative="1" as="geometry" />
        </mxCell>
        <mxCell id="101" value="NetworkService" style="swimlane;rounded=1;fillColor=#60a917;strokeColor=#2D7600;fontColor=#ffffff;fontFamily=Verdana;" parent="1" vertex="1">
          <mxGeometry x="-449" y="-1165" width="156" height="225" as="geometry">
            <mxRectangle x="362" y="106" width="89" height="23" as="alternateBounds" />
          </mxGeometry>
        </mxCell>
        <mxCell id="102" style="edgeStyle=orthogonalEdgeStyle;orthogonalLoop=1;jettySize=auto;html=1;entryX=0;entryY=0.5;entryDx=0;entryDy=0;rounded=0;curved=1;exitX=0;exitY=0.5;exitDx=0;exitDy=0;dashed=1;labelBackgroundColor=#09555B;strokeColor=#EEEEEE;fontColor=#FFFFFF;" parent="101" edge="1">
          <mxGeometry relative="1" as="geometry">
            <mxPoint x="25" y="110.99999999999989" as="sourcePoint" />
          </mxGeometry>
        </mxCell>
        <mxCell id="224" value="" style="group;fontColor=#182E3E;" parent="101" vertex="1" connectable="0">
          <mxGeometry x="18" y="45.5" width="120" height="60" as="geometry" />
        </mxCell>
        <mxCell id="225" value="" style="rounded=1;whiteSpace=wrap;html=1;shadow=0;glass=0;sketch=0;fillColor=#B1DDF0;strokeColor=#BAC8D3;fontColor=#182E3E;" parent="224" vertex="1">
          <mxGeometry width="120" height="60" as="geometry" />
        </mxCell>
        <mxCell id="226" value="&lt;font color=&quot;#000000&quot; face=&quot;Verdana&quot;&gt;getProvider&lt;/font&gt;" style="text;html=1;strokeColor=none;fillColor=none;align=center;verticalAlign=middle;whiteSpace=wrap;rounded=0;shadow=0;glass=0;sketch=0;fontColor=#182E3E;" parent="224" vertex="1">
          <mxGeometry x="7" y="14" width="106" height="16" as="geometry" />
        </mxCell>
        <mxCell id="227" value="(network)" style="text;strokeColor=none;fillColor=none;align=center;verticalAlign=middle;rounded=0;shadow=0;glass=0;sketch=0;fontColor=#182E3E;spacing=2;whiteSpace=wrap;html=1;fontFamily=Verdana;fontSize=8;" parent="224" vertex="1">
          <mxGeometry x="7" y="33" width="106" height="10" as="geometry" />
        </mxCell>
        <mxCell id="275" value="" style="group;fontColor=#182E3E;" parent="101" vertex="1" connectable="0">
          <mxGeometry x="18" y="128" width="120" height="60" as="geometry" />
        </mxCell>
        <mxCell id="276" value="" style="rounded=1;whiteSpace=wrap;html=1;shadow=0;glass=0;sketch=0;fillColor=#B1DDF0;strokeColor=#BAC8D3;fontColor=#182E3E;" parent="275" vertex="1">
          <mxGeometry width="120" height="60" as="geometry" />
        </mxCell>
        <mxCell id="277" value="&lt;font color=&quot;#000000&quot; face=&quot;Verdana&quot;&gt;sendTransaction&lt;/font&gt;" style="text;html=1;strokeColor=none;fillColor=none;align=center;verticalAlign=middle;whiteSpace=wrap;rounded=0;shadow=0;glass=0;sketch=0;fontColor=#182E3E;" parent="275" vertex="1">
          <mxGeometry x="7" y="14" width="106" height="16" as="geometry" />
        </mxCell>
        <mxCell id="278" value="(signedTx, network)" style="text;strokeColor=none;fillColor=none;align=center;verticalAlign=middle;rounded=0;shadow=0;glass=0;sketch=0;fontColor=#182E3E;spacing=2;whiteSpace=wrap;html=1;fontFamily=Verdana;fontSize=8;" parent="275" vertex="1">
          <mxGeometry x="7" y="33" width="106" height="10" as="geometry" />
        </mxCell>
        <mxCell id="229" style="edgeStyle=elbowEdgeStyle;sketch=0;orthogonalLoop=1;jettySize=auto;html=1;shadow=0;labelBackgroundColor=#09555B;fontFamily=Verdana;fontSize=8;fontColor=#FFFFFF;endArrow=openThin;endFill=0;sourcePerimeterSpacing=4;targetPerimeterSpacing=4;strokeColor=#EEEEEE;strokeWidth=3;" parent="1" source="225" target="167" edge="1">
          <mxGeometry relative="1" as="geometry" />
        </mxCell>
        <mxCell id="236" style="edgeStyle=entityRelationEdgeStyle;sketch=0;orthogonalLoop=1;jettySize=auto;html=1;shadow=0;labelBackgroundColor=#09555B;fontFamily=Verdana;fontSize=8;fontColor=#FFFFFF;endArrow=openThin;endFill=0;sourcePerimeterSpacing=4;targetPerimeterSpacing=4;strokeColor=#EEEEEE;strokeWidth=3;" parent="1" source="135" target="123" edge="1">
          <mxGeometry relative="1" as="geometry" />
        </mxCell>
        <mxCell id="238" value="" style="edgeStyle=entityRelationEdgeStyle;sketch=0;orthogonalLoop=1;jettySize=auto;html=1;shadow=0;labelBackgroundColor=#09555B;fontFamily=Verdana;fontSize=8;fontColor=#FFFFFF;endArrow=openThin;endFill=0;sourcePerimeterSpacing=4;targetPerimeterSpacing=4;strokeColor=#EEEEEE;strokeWidth=3;dashed=1;dashPattern=1 1;" parent="1" source="225" target="123" edge="1">
          <mxGeometry relative="1" as="geometry" />
        </mxCell>
        <mxCell id="290" value="NftService" style="swimlane;rounded=1;fillColor=#60a917;strokeColor=#2D7600;fontColor=#ffffff;fontFamily=Verdana;" parent="1" vertex="1">
          <mxGeometry x="-1179" y="-1404" width="156" height="225" as="geometry">
            <mxRectangle x="362" y="106" width="89" height="23" as="alternateBounds" />
          </mxGeometry>
        </mxCell>
        <mxCell id="291" style="edgeStyle=orthogonalEdgeStyle;orthogonalLoop=1;jettySize=auto;html=1;entryX=0;entryY=0.5;entryDx=0;entryDy=0;rounded=0;curved=1;exitX=0;exitY=0.5;exitDx=0;exitDy=0;dashed=1;labelBackgroundColor=#09555B;strokeColor=#EEEEEE;fontColor=#FFFFFF;" parent="290" edge="1">
          <mxGeometry relative="1" as="geometry">
            <mxPoint x="25" y="110.99999999999989" as="sourcePoint" />
          </mxGeometry>
        </mxCell>
        <mxCell id="292" value="" style="group;fontColor=#182E3E;" parent="290" vertex="1" connectable="0">
          <mxGeometry x="18" y="45.5" width="120" height="60" as="geometry" />
        </mxCell>
        <mxCell id="293" value="" style="rounded=1;whiteSpace=wrap;html=1;shadow=0;glass=0;sketch=0;fillColor=#B1DDF0;strokeColor=#BAC8D3;fontColor=#182E3E;" parent="292" vertex="1">
          <mxGeometry width="120" height="60" as="geometry" />
        </mxCell>
        <mxCell id="294" value="&lt;font color=&quot;#000000&quot; face=&quot;Verdana&quot;&gt;getProvider&lt;br&gt;&lt;/font&gt;" style="text;html=1;strokeColor=none;fillColor=none;align=center;verticalAlign=middle;whiteSpace=wrap;rounded=0;shadow=0;glass=0;sketch=0;fontColor=#182E3E;" parent="292" vertex="1">
          <mxGeometry x="7" y="14" width="106" height="16" as="geometry" />
        </mxCell>
        <mxCell id="295" value="(network)" style="text;strokeColor=none;fillColor=none;align=center;verticalAlign=middle;rounded=0;shadow=0;glass=0;sketch=0;fontColor=#182E3E;spacing=2;whiteSpace=wrap;html=1;fontFamily=Verdana;fontSize=8;" parent="292" vertex="1">
          <mxGeometry x="7" y="33" width="106" height="10" as="geometry" />
        </mxCell>
        <mxCell id="296" value="" style="group;fontColor=#182E3E;" parent="290" vertex="1" connectable="0">
          <mxGeometry x="18" y="128" width="120" height="60" as="geometry" />
        </mxCell>
        <mxCell id="297" value="" style="rounded=1;whiteSpace=wrap;html=1;shadow=0;glass=0;sketch=0;fillColor=#B1DDF0;strokeColor=#BAC8D3;fontColor=#182E3E;" parent="296" vertex="1">
          <mxGeometry width="120" height="60" as="geometry" />
        </mxCell>
        <mxCell id="298" value="&lt;font color=&quot;#000000&quot; face=&quot;Verdana&quot;&gt;fetchNFTs&lt;/font&gt;" style="text;html=1;strokeColor=none;fillColor=none;align=center;verticalAlign=middle;whiteSpace=wrap;rounded=0;shadow=0;glass=0;sketch=0;fontColor=#182E3E;" parent="296" vertex="1">
          <mxGeometry x="7" y="14" width="106" height="16" as="geometry" />
        </mxCell>
        <mxCell id="299" value="(chainId, address)" style="text;strokeColor=none;fillColor=none;align=center;verticalAlign=middle;rounded=0;shadow=0;glass=0;sketch=0;fontColor=#182E3E;spacing=2;whiteSpace=wrap;html=1;fontFamily=Verdana;fontSize=8;" parent="296" vertex="1">
          <mxGeometry x="7" y="33" width="106" height="10" as="geometry" />
        </mxCell>
        <mxCell id="317" style="edgeStyle=entityRelationEdgeStyle;rounded=1;orthogonalLoop=1;jettySize=auto;html=1;shadow=0;fontFamily=Verdana;fontSize=8;fontColor=#FFFFFF;strokeColor=#EEEEEE;strokeWidth=3;labelBackgroundColor=#09555B;endFill=0;endArrow=openThin;targetPerimeterSpacing=4;sourcePerimeterSpacing=4;sketch=0;" parent="1" source="297" target="315" edge="1">
          <mxGeometry relative="1" as="geometry">
            <mxPoint x="-806" y="-1059" as="targetPoint" />
          </mxGeometry>
        </mxCell>
        <mxCell id="324" style="edgeStyle=entityRelationEdgeStyle;rounded=1;orthogonalLoop=1;jettySize=auto;html=1;entryX=1;entryY=0.5;entryDx=0;entryDy=0;shadow=0;fontFamily=Verdana;fontSize=8;fontColor=#FFFFFF;strokeColor=#EEEEEE;strokeWidth=3;labelBackgroundColor=#09555B;endFill=0;endArrow=openThin;targetPerimeterSpacing=4;sourcePerimeterSpacing=4;sketch=0;" parent="1" source="318" target="167" edge="1">
          <mxGeometry relative="1" as="geometry" />
        </mxCell>
        <mxCell id="325" value="BalanceServiceProvider" style="swimlane;rounded=1;fillColor=#1ba1e2;strokeColor=#006EAF;fontColor=#ffffff;" parent="1" vertex="1">
          <mxGeometry x="-267.5" y="-1740" width="188" height="513" as="geometry">
            <mxRectangle x="-267.5" y="-1740" width="89" height="23" as="alternateBounds" />
          </mxGeometry>
        </mxCell>
        <mxCell id="326" style="edgeStyle=orthogonalEdgeStyle;orthogonalLoop=1;jettySize=auto;html=1;entryX=0;entryY=0.5;entryDx=0;entryDy=0;rounded=0;curved=1;exitX=0;exitY=0.5;exitDx=0;exitDy=0;dashed=1;labelBackgroundColor=#09555B;strokeColor=#EEEEEE;fontColor=#FFFFFF;" parent="325" edge="1">
          <mxGeometry relative="1" as="geometry">
            <mxPoint x="25" y="110.99999999999989" as="sourcePoint" />
          </mxGeometry>
        </mxCell>
        <mxCell id="318" value="GlacierBalanceSvc" style="swimlane;rounded=1;fillColor=#B1DDF0;strokeColor=#BAC8D3;fontColor=#182E3E;fontFamily=Verdana;startSize=23;" parent="325" vertex="1">
          <mxGeometry x="21" y="50" width="141" height="127" as="geometry">
            <mxRectangle x="362" y="106" width="89" height="23" as="alternateBounds" />
          </mxGeometry>
        </mxCell>
        <mxCell id="319" style="edgeStyle=orthogonalEdgeStyle;orthogonalLoop=1;jettySize=auto;html=1;entryX=0;entryY=0.5;entryDx=0;entryDy=0;rounded=0;curved=1;exitX=0;exitY=0.5;exitDx=0;exitDy=0;dashed=1;labelBackgroundColor=#09555B;strokeColor=#EEEEEE;fontColor=#FFFFFF;" parent="318" edge="1">
          <mxGeometry relative="1" as="geometry">
            <mxPoint x="25" y="110.99999999999989" as="sourcePoint" />
          </mxGeometry>
        </mxCell>
        <mxCell id="320" value="" style="group;fontColor=#182E3E;" parent="318" vertex="1" connectable="0">
          <mxGeometry x="10" y="43" width="120" height="60" as="geometry" />
        </mxCell>
        <mxCell id="321" value="" style="rounded=1;whiteSpace=wrap;html=1;shadow=0;glass=0;sketch=0;fillColor=#B1DDF0;strokeColor=#BAC8D3;fontColor=#182E3E;" parent="320" vertex="1">
          <mxGeometry width="120" height="60" as="geometry" />
        </mxCell>
        <mxCell id="322" value="&lt;font color=&quot;#000000&quot; face=&quot;Verdana&quot;&gt;getBalances&lt;/font&gt;" style="text;html=1;strokeColor=none;fillColor=none;align=center;verticalAlign=middle;whiteSpace=wrap;rounded=0;shadow=0;glass=0;sketch=0;fontColor=#182E3E;" parent="320" vertex="1">
          <mxGeometry x="7" y="14" width="106" height="16" as="geometry" />
        </mxCell>
        <mxCell id="323" value="(network, address, currency)" style="text;strokeColor=none;fillColor=none;align=center;verticalAlign=middle;rounded=0;shadow=0;glass=0;sketch=0;fontColor=#182E3E;spacing=2;whiteSpace=wrap;html=1;fontFamily=Verdana;fontSize=8;" parent="320" vertex="1">
          <mxGeometry x="7" y="33" width="106" height="10" as="geometry" />
        </mxCell>
        <mxCell id="170" value="BTCBalanceSvc" style="swimlane;rounded=1;fillColor=#B1DDF0;strokeColor=#BAC8D3;fontColor=#182E3E;fontFamily=Verdana;" parent="325" vertex="1">
          <mxGeometry x="21" y="215.5" width="141" height="127" as="geometry">
            <mxRectangle x="362" y="106" width="89" height="23" as="alternateBounds" />
          </mxGeometry>
        </mxCell>
        <mxCell id="171" style="edgeStyle=orthogonalEdgeStyle;orthogonalLoop=1;jettySize=auto;html=1;entryX=0;entryY=0.5;entryDx=0;entryDy=0;rounded=0;curved=1;exitX=0;exitY=0.5;exitDx=0;exitDy=0;dashed=1;labelBackgroundColor=#09555B;strokeColor=#EEEEEE;fontColor=#FFFFFF;" parent="170" edge="1">
          <mxGeometry relative="1" as="geometry">
            <mxPoint x="25" y="110.99999999999989" as="sourcePoint" />
          </mxGeometry>
        </mxCell>
        <mxCell id="172" value="" style="group;fontColor=#182E3E;" parent="170" vertex="1" connectable="0">
          <mxGeometry x="10" y="43" width="120" height="60" as="geometry" />
        </mxCell>
        <mxCell id="173" value="" style="rounded=1;whiteSpace=wrap;html=1;shadow=0;glass=0;sketch=0;fillColor=#B1DDF0;strokeColor=#BAC8D3;fontColor=#182E3E;" parent="172" vertex="1">
          <mxGeometry width="120" height="60" as="geometry" />
        </mxCell>
        <mxCell id="174" value="&lt;font color=&quot;#000000&quot; face=&quot;Verdana&quot;&gt;getBalances&lt;/font&gt;" style="text;html=1;strokeColor=none;fillColor=none;align=center;verticalAlign=middle;whiteSpace=wrap;rounded=0;shadow=0;glass=0;sketch=0;fontColor=#182E3E;" parent="172" vertex="1">
          <mxGeometry x="7" y="14" width="106" height="16" as="geometry" />
        </mxCell>
        <mxCell id="175" value="(network, address, currency)" style="text;strokeColor=none;fillColor=none;align=center;verticalAlign=middle;rounded=0;shadow=0;glass=0;sketch=0;fontColor=#182E3E;spacing=2;whiteSpace=wrap;html=1;fontFamily=Verdana;fontSize=8;" parent="172" vertex="1">
          <mxGeometry x="7" y="33" width="106" height="10" as="geometry" />
        </mxCell>
        <mxCell id="188" value="EVMBalanceSvc" style="swimlane;rounded=1;fillColor=#B1DDF0;strokeColor=#BAC8D3;fontColor=#182E3E;fontFamily=Verdana;" parent="325" vertex="1">
          <mxGeometry x="23.5" y="366" width="141" height="127" as="geometry">
            <mxRectangle x="362" y="106" width="89" height="23" as="alternateBounds" />
          </mxGeometry>
        </mxCell>
        <mxCell id="189" style="edgeStyle=orthogonalEdgeStyle;orthogonalLoop=1;jettySize=auto;html=1;entryX=0;entryY=0.5;entryDx=0;entryDy=0;rounded=0;curved=1;exitX=0;exitY=0.5;exitDx=0;exitDy=0;dashed=1;labelBackgroundColor=#09555B;strokeColor=#EEEEEE;fontColor=#FFFFFF;" parent="188" edge="1">
          <mxGeometry relative="1" as="geometry">
            <mxPoint x="25" y="110.99999999999989" as="sourcePoint" />
          </mxGeometry>
        </mxCell>
        <mxCell id="190" value="" style="group;fontColor=#182E3E;" parent="188" vertex="1" connectable="0">
          <mxGeometry x="10" y="43" width="120" height="60" as="geometry" />
        </mxCell>
        <mxCell id="191" value="" style="rounded=1;whiteSpace=wrap;html=1;shadow=0;glass=0;sketch=0;fillColor=#B1DDF0;strokeColor=#BAC8D3;fontColor=#182E3E;" parent="190" vertex="1">
          <mxGeometry width="120" height="60" as="geometry" />
        </mxCell>
        <mxCell id="192" value="&lt;font color=&quot;#000000&quot; face=&quot;Verdana&quot;&gt;getBalances&lt;/font&gt;" style="text;html=1;strokeColor=none;fillColor=none;align=center;verticalAlign=middle;whiteSpace=wrap;rounded=0;shadow=0;glass=0;sketch=0;fontColor=#182E3E;" parent="190" vertex="1">
          <mxGeometry x="7" y="14" width="106" height="16" as="geometry" />
        </mxCell>
        <mxCell id="193" value="(network, address, currency)" style="text;strokeColor=none;fillColor=none;align=center;verticalAlign=middle;rounded=0;shadow=0;glass=0;sketch=0;fontColor=#182E3E;spacing=2;whiteSpace=wrap;html=1;fontFamily=Verdana;fontSize=8;" parent="190" vertex="1">
          <mxGeometry x="7" y="33" width="106" height="10" as="geometry" />
        </mxCell>
        <mxCell id="3FRn_oGSm7d69mBdq1QQ-464" style="edgeStyle=entityRelationEdgeStyle;sketch=0;orthogonalLoop=1;jettySize=auto;html=1;shadow=0;labelBackgroundColor=#09555B;fontFamily=Verdana;fontSize=8;fontColor=#FFFFFF;endArrow=openThin;endFill=0;sourcePerimeterSpacing=4;targetPerimeterSpacing=4;strokeColor=#EEEEEE;strokeWidth=3;" parent="1" source="3FRn_oGSm7d69mBdq1QQ-473" target="3FRn_oGSm7d69mBdq1QQ-466" edge="1">
          <mxGeometry relative="1" as="geometry">
            <mxPoint x="-1813.5" y="-1788" as="sourcePoint" />
            <mxPoint x="-1622" y="-1693" as="targetPoint" />
          </mxGeometry>
        </mxCell>
        <mxCell id="3FRn_oGSm7d69mBdq1QQ-338" value="Coingecko-sdk" style="swimlane;rounded=1;fillColor=#f0a30a;strokeColor=#BD7000;fontColor=#000000;fontFamily=Verdana;" parent="1" vertex="1">
          <mxGeometry x="479" y="-1997" width="183" height="455" as="geometry">
            <mxRectangle x="362" y="106" width="89" height="23" as="alternateBounds" />
          </mxGeometry>
        </mxCell>
        <mxCell id="3FRn_oGSm7d69mBdq1QQ-339" style="edgeStyle=orthogonalEdgeStyle;orthogonalLoop=1;jettySize=auto;html=1;entryX=0;entryY=0.5;entryDx=0;entryDy=0;rounded=0;curved=1;exitX=0;exitY=0.5;exitDx=0;exitDy=0;dashed=1;labelBackgroundColor=#09555B;strokeColor=#EEEEEE;fontColor=#FFFFFF;" parent="3FRn_oGSm7d69mBdq1QQ-338" edge="1">
          <mxGeometry relative="1" as="geometry">
            <mxPoint x="25" y="110.99999999999989" as="sourcePoint" />
          </mxGeometry>
        </mxCell>
        <mxCell id="3FRn_oGSm7d69mBdq1QQ-472" value="" style="group;fontColor=#182E3E;" parent="3FRn_oGSm7d69mBdq1QQ-338" vertex="1" connectable="0">
          <mxGeometry x="34" y="51" width="120" height="60" as="geometry" />
        </mxCell>
        <mxCell id="3FRn_oGSm7d69mBdq1QQ-473" value="" style="rounded=1;whiteSpace=wrap;html=1;shadow=0;glass=0;sketch=0;fillColor=#B1DDF0;strokeColor=#BAC8D3;fontColor=#182E3E;" parent="3FRn_oGSm7d69mBdq1QQ-472" vertex="1">
          <mxGeometry width="120" height="60" as="geometry" />
        </mxCell>
        <mxCell id="3FRn_oGSm7d69mBdq1QQ-474" value="&lt;font color=&quot;#000000&quot; face=&quot;Verdana&quot;&gt;coinsMarket&lt;br&gt;&lt;/font&gt;" style="text;html=1;strokeColor=none;fillColor=none;align=center;verticalAlign=middle;whiteSpace=wrap;rounded=0;shadow=0;glass=0;sketch=0;fontColor=#182E3E;" parent="3FRn_oGSm7d69mBdq1QQ-472" vertex="1">
          <mxGeometry x="7" y="22" width="106" height="16" as="geometry" />
        </mxCell>
        <mxCell id="3FRn_oGSm7d69mBdq1QQ-497" value="" style="group;fontColor=#182E3E;" parent="3FRn_oGSm7d69mBdq1QQ-338" vertex="1" connectable="0">
          <mxGeometry x="34" y="131" width="120" height="60" as="geometry" />
        </mxCell>
        <mxCell id="3FRn_oGSm7d69mBdq1QQ-498" value="" style="rounded=1;whiteSpace=wrap;html=1;shadow=0;glass=0;sketch=0;fillColor=#B1DDF0;strokeColor=#BAC8D3;fontColor=#182E3E;" parent="3FRn_oGSm7d69mBdq1QQ-497" vertex="1">
          <mxGeometry width="120" height="60" as="geometry" />
        </mxCell>
        <mxCell id="3FRn_oGSm7d69mBdq1QQ-499" value="&lt;font color=&quot;#000000&quot; face=&quot;Verdana&quot;&gt;coinsSearch&lt;br&gt;&lt;/font&gt;" style="text;html=1;strokeColor=none;fillColor=none;align=center;verticalAlign=middle;whiteSpace=wrap;rounded=0;shadow=0;glass=0;sketch=0;fontColor=#182E3E;" parent="3FRn_oGSm7d69mBdq1QQ-497" vertex="1">
          <mxGeometry x="7" y="22" width="106" height="16" as="geometry" />
        </mxCell>
        <mxCell id="3FRn_oGSm7d69mBdq1QQ-508" value="" style="group;fontColor=#182E3E;" parent="3FRn_oGSm7d69mBdq1QQ-338" vertex="1" connectable="0">
          <mxGeometry x="34" y="208" width="120" height="60" as="geometry" />
        </mxCell>
        <mxCell id="3FRn_oGSm7d69mBdq1QQ-509" value="" style="rounded=1;whiteSpace=wrap;html=1;shadow=0;glass=0;sketch=0;fillColor=#B1DDF0;strokeColor=#BAC8D3;fontColor=#182E3E;" parent="3FRn_oGSm7d69mBdq1QQ-508" vertex="1">
          <mxGeometry width="120" height="60" as="geometry" />
        </mxCell>
        <mxCell id="3FRn_oGSm7d69mBdq1QQ-510" value="&lt;font color=&quot;#000000&quot; face=&quot;Verdana&quot;&gt;simplePrice&lt;br&gt;&lt;/font&gt;" style="text;html=1;strokeColor=none;fillColor=none;align=center;verticalAlign=middle;whiteSpace=wrap;rounded=0;shadow=0;glass=0;sketch=0;fontColor=#182E3E;" parent="3FRn_oGSm7d69mBdq1QQ-508" vertex="1">
          <mxGeometry x="7" y="22" width="106" height="16" as="geometry" />
        </mxCell>
        <mxCell id="3FRn_oGSm7d69mBdq1QQ-529" value="" style="group;fontColor=#182E3E;" parent="3FRn_oGSm7d69mBdq1QQ-338" vertex="1" connectable="0">
          <mxGeometry x="34" y="288" width="120" height="60" as="geometry" />
        </mxCell>
        <mxCell id="3FRn_oGSm7d69mBdq1QQ-530" value="" style="rounded=1;whiteSpace=wrap;html=1;shadow=0;glass=0;sketch=0;fillColor=#B1DDF0;strokeColor=#BAC8D3;fontColor=#182E3E;" parent="3FRn_oGSm7d69mBdq1QQ-529" vertex="1">
          <mxGeometry width="120" height="60" as="geometry" />
        </mxCell>
        <mxCell id="3FRn_oGSm7d69mBdq1QQ-531" value="&lt;font color=&quot;#000000&quot; face=&quot;Verdana&quot;&gt;simpleTokenPrice&lt;br&gt;&lt;/font&gt;" style="text;html=1;strokeColor=none;fillColor=none;align=center;verticalAlign=middle;whiteSpace=wrap;rounded=0;shadow=0;glass=0;sketch=0;fontColor=#182E3E;" parent="3FRn_oGSm7d69mBdq1QQ-529" vertex="1">
          <mxGeometry x="7" y="22" width="106" height="16" as="geometry" />
        </mxCell>
        <mxCell id="3FRn_oGSm7d69mBdq1QQ-490" value="" style="group;fontColor=#182E3E;" parent="3FRn_oGSm7d69mBdq1QQ-338" vertex="1" connectable="0">
          <mxGeometry x="34" y="368" width="120" height="60" as="geometry" />
        </mxCell>
        <mxCell id="3FRn_oGSm7d69mBdq1QQ-491" value="" style="rounded=1;whiteSpace=wrap;html=1;shadow=0;glass=0;sketch=0;fillColor=#B1DDF0;strokeColor=#BAC8D3;fontColor=#182E3E;" parent="3FRn_oGSm7d69mBdq1QQ-490" vertex="1">
          <mxGeometry width="120" height="60" as="geometry" />
        </mxCell>
        <mxCell id="3FRn_oGSm7d69mBdq1QQ-492" value="&lt;font color=&quot;#000000&quot; face=&quot;Verdana&quot;&gt;coinsMarketChart&lt;br&gt;&lt;/font&gt;" style="text;html=1;strokeColor=none;fillColor=none;align=center;verticalAlign=middle;whiteSpace=wrap;rounded=0;shadow=0;glass=0;sketch=0;fontColor=#182E3E;" parent="3FRn_oGSm7d69mBdq1QQ-490" vertex="1">
          <mxGeometry x="7" y="22" width="106" height="16" as="geometry" />
        </mxCell>
        <mxCell id="3FRn_oGSm7d69mBdq1QQ-428" style="edgeStyle=orthogonalEdgeStyle;sketch=0;orthogonalLoop=1;jettySize=auto;html=1;shadow=0;labelBackgroundColor=#09555B;fontFamily=Verdana;fontSize=8;fontColor=#FFFFFF;endArrow=openThin;endFill=0;sourcePerimeterSpacing=4;targetPerimeterSpacing=4;strokeColor=#EEEEEE;strokeWidth=3;" parent="1" source="3FRn_oGSm7d69mBdq1QQ-344" target="3FRn_oGSm7d69mBdq1QQ-367" edge="1">
          <mxGeometry relative="1" as="geometry" />
        </mxCell>
        <mxCell id="3FRn_oGSm7d69mBdq1QQ-344" value="glacier-sdk" style="swimlane;rounded=1;fillColor=#f0a30a;strokeColor=#BD7000;fontColor=#000000;fontFamily=Verdana;" parent="1" vertex="1">
          <mxGeometry x="-1261" y="-2025" width="429" height="195" as="geometry">
            <mxRectangle x="362" y="106" width="89" height="23" as="alternateBounds" />
          </mxGeometry>
        </mxCell>
        <mxCell id="3FRn_oGSm7d69mBdq1QQ-345" style="edgeStyle=orthogonalEdgeStyle;orthogonalLoop=1;jettySize=auto;html=1;entryX=0;entryY=0.5;entryDx=0;entryDy=0;rounded=0;curved=1;exitX=0;exitY=0.5;exitDx=0;exitDy=0;dashed=1;labelBackgroundColor=#09555B;strokeColor=#EEEEEE;fontColor=#FFFFFF;" parent="3FRn_oGSm7d69mBdq1QQ-344" edge="1">
          <mxGeometry relative="1" as="geometry">
            <mxPoint x="25" y="110.99999999999989" as="sourcePoint" />
          </mxGeometry>
        </mxCell>
        <mxCell id="3FRn_oGSm7d69mBdq1QQ-346" value="" style="group;fontColor=#182E3E;" parent="3FRn_oGSm7d69mBdq1QQ-344" vertex="1" connectable="0">
          <mxGeometry x="16.5" y="35" width="120" height="60" as="geometry" />
        </mxCell>
        <mxCell id="3FRn_oGSm7d69mBdq1QQ-347" value="" style="rounded=1;whiteSpace=wrap;html=1;shadow=0;glass=0;sketch=0;fillColor=#B1DDF0;strokeColor=#BAC8D3;fontColor=#182E3E;" parent="3FRn_oGSm7d69mBdq1QQ-346" vertex="1">
          <mxGeometry width="120" height="60" as="geometry" />
        </mxCell>
        <mxCell id="3FRn_oGSm7d69mBdq1QQ-348" value="&lt;font color=&quot;#000000&quot; face=&quot;Verdana&quot;&gt;listTransactions&lt;/font&gt;" style="text;html=1;strokeColor=none;fillColor=none;align=center;verticalAlign=middle;whiteSpace=wrap;rounded=0;shadow=0;glass=0;sketch=0;fontColor=#182E3E;" parent="3FRn_oGSm7d69mBdq1QQ-346" vertex="1">
          <mxGeometry x="7" y="14" width="106" height="16" as="geometry" />
        </mxCell>
        <mxCell id="3FRn_oGSm7d69mBdq1QQ-349" value="(chainId, address, pagination)" style="text;strokeColor=none;fillColor=none;align=center;verticalAlign=middle;rounded=0;shadow=0;glass=0;sketch=0;fontColor=#182E3E;spacing=2;whiteSpace=wrap;html=1;fontFamily=Verdana;fontSize=8;" parent="3FRn_oGSm7d69mBdq1QQ-346" vertex="1">
          <mxGeometry x="7" y="33" width="106" height="10" as="geometry" />
        </mxCell>
        <mxCell id="3FRn_oGSm7d69mBdq1QQ-392" value="" style="group;fontColor=#182E3E;" parent="3FRn_oGSm7d69mBdq1QQ-344" vertex="1" connectable="0">
          <mxGeometry x="156" y="111" width="120" height="60" as="geometry" />
        </mxCell>
        <mxCell id="3FRn_oGSm7d69mBdq1QQ-393" value="" style="rounded=1;whiteSpace=wrap;html=1;shadow=0;glass=0;sketch=0;fillColor=#B1DDF0;strokeColor=#BAC8D3;fontColor=#182E3E;" parent="3FRn_oGSm7d69mBdq1QQ-392" vertex="1">
          <mxGeometry width="120" height="60" as="geometry" />
        </mxCell>
        <mxCell id="3FRn_oGSm7d69mBdq1QQ-394" value="&lt;font color=&quot;#000000&quot; face=&quot;Verdana&quot;&gt;listErc20Balances&lt;br&gt;&lt;/font&gt;" style="text;html=1;strokeColor=none;fillColor=none;align=center;verticalAlign=middle;whiteSpace=wrap;rounded=0;shadow=0;glass=0;sketch=0;fontColor=#182E3E;" parent="3FRn_oGSm7d69mBdq1QQ-392" vertex="1">
          <mxGeometry x="7" y="22" width="106" height="16" as="geometry" />
        </mxCell>
        <mxCell id="3FRn_oGSm7d69mBdq1QQ-421" value="" style="group;fontColor=#182E3E;" parent="3FRn_oGSm7d69mBdq1QQ-344" vertex="1" connectable="0">
          <mxGeometry x="292" y="111" width="120" height="60" as="geometry" />
        </mxCell>
        <mxCell id="3FRn_oGSm7d69mBdq1QQ-422" value="" style="rounded=1;whiteSpace=wrap;html=1;shadow=0;glass=0;sketch=0;fillColor=#B1DDF0;strokeColor=#BAC8D3;fontColor=#182E3E;" parent="3FRn_oGSm7d69mBdq1QQ-421" vertex="1">
          <mxGeometry width="120" height="60" as="geometry" />
        </mxCell>
        <mxCell id="3FRn_oGSm7d69mBdq1QQ-423" value="&lt;font color=&quot;#000000&quot; face=&quot;Verdana&quot;&gt;listErc721Balances&lt;br&gt;&lt;/font&gt;" style="text;html=1;strokeColor=none;fillColor=none;align=center;verticalAlign=middle;whiteSpace=wrap;rounded=0;shadow=0;glass=0;sketch=0;fontColor=#182E3E;" parent="3FRn_oGSm7d69mBdq1QQ-421" vertex="1">
          <mxGeometry x="7" y="22" width="106" height="16" as="geometry" />
        </mxCell>
        <mxCell id="3FRn_oGSm7d69mBdq1QQ-382" value="" style="group;fontColor=#182E3E;" parent="3FRn_oGSm7d69mBdq1QQ-344" vertex="1" connectable="0">
          <mxGeometry x="156" y="35" width="120" height="60" as="geometry" />
        </mxCell>
        <mxCell id="3FRn_oGSm7d69mBdq1QQ-383" value="" style="rounded=1;whiteSpace=wrap;html=1;shadow=0;glass=0;sketch=0;fillColor=#B1DDF0;strokeColor=#BAC8D3;fontColor=#182E3E;" parent="3FRn_oGSm7d69mBdq1QQ-382" vertex="1">
          <mxGeometry width="120" height="60" as="geometry" />
        </mxCell>
        <mxCell id="3FRn_oGSm7d69mBdq1QQ-384" value="&lt;font color=&quot;#000000&quot; face=&quot;Verdana&quot;&gt;supportedChains&lt;br&gt;&lt;/font&gt;" style="text;html=1;strokeColor=none;fillColor=none;align=center;verticalAlign=middle;whiteSpace=wrap;rounded=0;shadow=0;glass=0;sketch=0;fontColor=#182E3E;" parent="3FRn_oGSm7d69mBdq1QQ-382" vertex="1">
          <mxGeometry x="7" y="22" width="106" height="16" as="geometry" />
        </mxCell>
        <mxCell id="3FRn_oGSm7d69mBdq1QQ-386" value="" style="group;fontColor=#182E3E;" parent="3FRn_oGSm7d69mBdq1QQ-344" vertex="1" connectable="0">
          <mxGeometry x="292" y="33" width="120" height="60" as="geometry" />
        </mxCell>
        <mxCell id="3FRn_oGSm7d69mBdq1QQ-387" value="" style="rounded=1;whiteSpace=wrap;html=1;shadow=0;glass=0;sketch=0;fillColor=#B1DDF0;strokeColor=#BAC8D3;fontColor=#182E3E;" parent="3FRn_oGSm7d69mBdq1QQ-386" vertex="1">
          <mxGeometry width="120" height="60" as="geometry" />
        </mxCell>
        <mxCell id="3FRn_oGSm7d69mBdq1QQ-388" value="&lt;font color=&quot;#000000&quot; face=&quot;Verdana&quot;&gt;healthCheck&lt;br&gt;&lt;/font&gt;" style="text;html=1;strokeColor=none;fillColor=none;align=center;verticalAlign=middle;whiteSpace=wrap;rounded=0;shadow=0;glass=0;sketch=0;fontColor=#182E3E;" parent="3FRn_oGSm7d69mBdq1QQ-386" vertex="1">
          <mxGeometry x="7" y="22" width="106" height="16" as="geometry" />
        </mxCell>
        <mxCell id="3FRn_oGSm7d69mBdq1QQ-389" value="" style="group;fontColor=#182E3E;" parent="3FRn_oGSm7d69mBdq1QQ-344" vertex="1" connectable="0">
          <mxGeometry x="16.5" y="111" width="120" height="60" as="geometry" />
        </mxCell>
        <mxCell id="3FRn_oGSm7d69mBdq1QQ-390" value="" style="rounded=1;whiteSpace=wrap;html=1;shadow=0;glass=0;sketch=0;fillColor=#B1DDF0;strokeColor=#BAC8D3;fontColor=#182E3E;" parent="3FRn_oGSm7d69mBdq1QQ-389" vertex="1">
          <mxGeometry width="120" height="60" as="geometry" />
        </mxCell>
        <mxCell id="3FRn_oGSm7d69mBdq1QQ-391" value="&lt;font color=&quot;#000000&quot; face=&quot;Verdana&quot;&gt;getNativeBalance&lt;br&gt;&lt;/font&gt;" style="text;html=1;strokeColor=none;fillColor=none;align=center;verticalAlign=middle;whiteSpace=wrap;rounded=0;shadow=0;glass=0;sketch=0;fontColor=#182E3E;" parent="3FRn_oGSm7d69mBdq1QQ-389" vertex="1">
          <mxGeometry x="7" y="22" width="106" height="16" as="geometry" />
        </mxCell>
        <mxCell id="3FRn_oGSm7d69mBdq1QQ-354" value="ActivityService" style="swimlane;rounded=1;fillColor=#60a917;strokeColor=#2D7600;fontColor=#ffffff;fontFamily=Verdana;" parent="1" vertex="1">
          <mxGeometry x="-1166" y="-1585" width="143" height="126" as="geometry">
            <mxRectangle x="362" y="106" width="89" height="23" as="alternateBounds" />
          </mxGeometry>
        </mxCell>
        <mxCell id="3FRn_oGSm7d69mBdq1QQ-355" style="edgeStyle=orthogonalEdgeStyle;orthogonalLoop=1;jettySize=auto;html=1;entryX=0;entryY=0.5;entryDx=0;entryDy=0;rounded=0;curved=1;exitX=0;exitY=0.5;exitDx=0;exitDy=0;dashed=1;labelBackgroundColor=#09555B;strokeColor=#EEEEEE;fontColor=#FFFFFF;" parent="3FRn_oGSm7d69mBdq1QQ-354" edge="1">
          <mxGeometry relative="1" as="geometry">
            <mxPoint x="25" y="110.99999999999989" as="sourcePoint" />
          </mxGeometry>
        </mxCell>
        <mxCell id="3FRn_oGSm7d69mBdq1QQ-356" value="" style="group;fontColor=#182E3E;" parent="3FRn_oGSm7d69mBdq1QQ-354" vertex="1" connectable="0">
          <mxGeometry x="10" y="44" width="120" height="60" as="geometry" />
        </mxCell>
        <mxCell id="3FRn_oGSm7d69mBdq1QQ-357" value="" style="rounded=1;whiteSpace=wrap;html=1;shadow=0;glass=0;sketch=0;fillColor=#B1DDF0;strokeColor=#BAC8D3;fontColor=#182E3E;" parent="3FRn_oGSm7d69mBdq1QQ-356" vertex="1">
          <mxGeometry width="120" height="60" as="geometry" />
        </mxCell>
        <mxCell id="3FRn_oGSm7d69mBdq1QQ-358" value="&lt;font color=&quot;#000000&quot; face=&quot;Verdana&quot;&gt;getActivities&lt;br&gt;&lt;/font&gt;" style="text;html=1;strokeColor=none;fillColor=none;align=center;verticalAlign=middle;whiteSpace=wrap;rounded=0;shadow=0;glass=0;sketch=0;fontColor=#182E3E;" parent="3FRn_oGSm7d69mBdq1QQ-356" vertex="1">
          <mxGeometry x="7" y="22" width="106" height="16" as="geometry" />
        </mxCell>
        <mxCell id="3FRn_oGSm7d69mBdq1QQ-425" style="edgeStyle=entityRelationEdgeStyle;sketch=0;orthogonalLoop=1;jettySize=auto;html=1;shadow=0;labelBackgroundColor=#09555B;fontFamily=Verdana;fontSize=8;fontColor=#FFFFFF;endArrow=openThin;endFill=0;sourcePerimeterSpacing=4;targetPerimeterSpacing=4;strokeColor=#EEEEEE;strokeWidth=3;" parent="1" source="3FRn_oGSm7d69mBdq1QQ-364" target="3FRn_oGSm7d69mBdq1QQ-357" edge="1">
          <mxGeometry relative="1" as="geometry" />
        </mxCell>
        <mxCell id="3FRn_oGSm7d69mBdq1QQ-364" value="Providers" style="swimlane;rounded=1;fillColor=#1ba1e2;strokeColor=#006EAF;fontColor=#ffffff;" parent="1" vertex="1">
          <mxGeometry x="-1479" y="-1676" width="188" height="209" as="geometry">
            <mxRectangle x="362" y="106" width="89" height="23" as="alternateBounds" />
          </mxGeometry>
        </mxCell>
        <mxCell id="3FRn_oGSm7d69mBdq1QQ-365" style="edgeStyle=orthogonalEdgeStyle;orthogonalLoop=1;jettySize=auto;html=1;entryX=0;entryY=0.5;entryDx=0;entryDy=0;rounded=0;curved=1;exitX=0;exitY=0.5;exitDx=0;exitDy=0;dashed=1;labelBackgroundColor=#09555B;strokeColor=#EEEEEE;fontColor=#FFFFFF;" parent="3FRn_oGSm7d69mBdq1QQ-364" edge="1">
          <mxGeometry relative="1" as="geometry">
            <mxPoint x="25" y="110.99999999999989" as="sourcePoint" />
          </mxGeometry>
        </mxCell>
        <mxCell id="3FRn_oGSm7d69mBdq1QQ-366" value="" style="group;perimeterSpacing=4;strokeWidth=7;" parent="3FRn_oGSm7d69mBdq1QQ-364" vertex="1" connectable="0">
          <mxGeometry x="27" y="52" width="120" height="60" as="geometry" />
        </mxCell>
        <mxCell id="3FRn_oGSm7d69mBdq1QQ-367" value="" style="rounded=1;whiteSpace=wrap;html=1;shadow=0;glass=0;sketch=0;fillColor=#B1DDF0;strokeColor=#BAC8D3;fontColor=#182E3E;" parent="3FRn_oGSm7d69mBdq1QQ-366" vertex="1">
          <mxGeometry width="120" height="60" as="geometry" />
        </mxCell>
        <mxCell id="3FRn_oGSm7d69mBdq1QQ-368" value="&lt;font color=&quot;#000000&quot; face=&quot;Verdana&quot;&gt;BtcActivityService&lt;/font&gt;" style="text;html=1;strokeColor=none;fillColor=none;align=center;verticalAlign=middle;whiteSpace=wrap;rounded=0;shadow=0;glass=0;sketch=0;fontColor=#182E3E;" parent="3FRn_oGSm7d69mBdq1QQ-366" vertex="1">
          <mxGeometry x="7" y="22" width="106" height="16" as="geometry" />
        </mxCell>
        <mxCell id="3FRn_oGSm7d69mBdq1QQ-369" value="" style="group;perimeterSpacing=4;strokeColor=none;strokeWidth=7;fontColor=#182E3E;" parent="3FRn_oGSm7d69mBdq1QQ-364" vertex="1" connectable="0">
          <mxGeometry x="27" y="129" width="120" height="60" as="geometry" />
        </mxCell>
        <mxCell id="3FRn_oGSm7d69mBdq1QQ-370" value="" style="rounded=1;whiteSpace=wrap;html=1;shadow=0;glass=0;sketch=0;fillColor=#B1DDF0;strokeColor=#BAC8D3;fontColor=#182E3E;" parent="3FRn_oGSm7d69mBdq1QQ-369" vertex="1">
          <mxGeometry width="120" height="60" as="geometry" />
        </mxCell>
        <mxCell id="3FRn_oGSm7d69mBdq1QQ-371" value="&lt;font color=&quot;#000000&quot; face=&quot;Verdana&quot;&gt;EvmActivityService&lt;/font&gt;" style="text;html=1;strokeColor=none;fillColor=none;align=center;verticalAlign=middle;whiteSpace=wrap;rounded=0;shadow=0;glass=0;sketch=0;fontColor=#182E3E;" parent="3FRn_oGSm7d69mBdq1QQ-369" vertex="1">
          <mxGeometry x="7" y="22" width="106" height="16" as="geometry" />
        </mxCell>
        <mxCell id="3FRn_oGSm7d69mBdq1QQ-412" style="edgeStyle=entityRelationEdgeStyle;sketch=0;orthogonalLoop=1;jettySize=auto;html=1;shadow=0;labelBackgroundColor=#09555B;fontFamily=Verdana;fontSize=8;fontColor=#FFFFFF;endArrow=openThin;endFill=0;sourcePerimeterSpacing=4;targetPerimeterSpacing=4;strokeColor=#EEEEEE;strokeWidth=3;" parent="1" source="3FRn_oGSm7d69mBdq1QQ-357" target="3FRn_oGSm7d69mBdq1QQ-361" edge="1">
          <mxGeometry relative="1" as="geometry" />
        </mxCell>
        <mxCell id="3FRn_oGSm7d69mBdq1QQ-459" value="TokenService" style="swimlane;rounded=1;fillColor=#60a917;strokeColor=#2D7600;fontColor=#ffffff;fontFamily=Verdana;" parent="1" vertex="1">
          <mxGeometry x="178" y="-1997" width="188" height="571" as="geometry">
            <mxRectangle x="362" y="106" width="89" height="23" as="alternateBounds" />
          </mxGeometry>
        </mxCell>
        <mxCell id="3FRn_oGSm7d69mBdq1QQ-460" style="edgeStyle=orthogonalEdgeStyle;orthogonalLoop=1;jettySize=auto;html=1;entryX=0;entryY=0.5;entryDx=0;entryDy=0;rounded=0;curved=1;exitX=0;exitY=0.5;exitDx=0;exitDy=0;dashed=1;labelBackgroundColor=#09555B;strokeColor=#EEEEEE;fontColor=#FFFFFF;" parent="3FRn_oGSm7d69mBdq1QQ-459" edge="1">
          <mxGeometry relative="1" as="geometry">
            <mxPoint x="25" y="110.99999999999989" as="sourcePoint" />
          </mxGeometry>
        </mxCell>
        <mxCell id="3FRn_oGSm7d69mBdq1QQ-465" value="" style="group;fontColor=#182E3E;" parent="3FRn_oGSm7d69mBdq1QQ-459" vertex="1" connectable="0">
          <mxGeometry x="39" y="57" width="120" height="60" as="geometry" />
        </mxCell>
        <mxCell id="3FRn_oGSm7d69mBdq1QQ-466" value="" style="rounded=1;whiteSpace=wrap;html=1;shadow=0;glass=0;sketch=0;fillColor=#B1DDF0;strokeColor=#BAC8D3;fontColor=#182E3E;" parent="3FRn_oGSm7d69mBdq1QQ-465" vertex="1">
          <mxGeometry width="120" height="60" as="geometry" />
        </mxCell>
        <mxCell id="3FRn_oGSm7d69mBdq1QQ-467" value="&lt;font color=&quot;#000000&quot; face=&quot;Verdana&quot;&gt;getMarkets&lt;br&gt;&lt;/font&gt;" style="text;html=1;strokeColor=none;fillColor=none;align=center;verticalAlign=middle;whiteSpace=wrap;rounded=0;shadow=0;glass=0;sketch=0;fontColor=#182E3E;" parent="3FRn_oGSm7d69mBdq1QQ-465" vertex="1">
          <mxGeometry x="7" y="22" width="106" height="16" as="geometry" />
        </mxCell>
        <mxCell id="3FRn_oGSm7d69mBdq1QQ-503" value="" style="group;fontColor=#182E3E;" parent="3FRn_oGSm7d69mBdq1QQ-459" vertex="1" connectable="0">
          <mxGeometry x="41.5" y="134.5" width="120" height="60" as="geometry" />
        </mxCell>
        <mxCell id="3FRn_oGSm7d69mBdq1QQ-504" value="" style="rounded=1;whiteSpace=wrap;html=1;shadow=0;glass=0;sketch=0;fillColor=#B1DDF0;strokeColor=#BAC8D3;fontColor=#182E3E;" parent="3FRn_oGSm7d69mBdq1QQ-503" vertex="1">
          <mxGeometry width="120" height="60" as="geometry" />
        </mxCell>
        <mxCell id="3FRn_oGSm7d69mBdq1QQ-505" value="&lt;font color=&quot;#000000&quot; face=&quot;Verdana&quot;&gt;getTokenSearch&lt;br&gt;&lt;/font&gt;" style="text;html=1;strokeColor=none;fillColor=none;align=center;verticalAlign=middle;whiteSpace=wrap;rounded=0;shadow=0;glass=0;sketch=0;fontColor=#182E3E;" parent="3FRn_oGSm7d69mBdq1QQ-503" vertex="1">
          <mxGeometry x="7" y="22" width="106" height="16" as="geometry" />
        </mxCell>
        <mxCell id="3FRn_oGSm7d69mBdq1QQ-517" value="" style="group;fontColor=#182E3E;" parent="3FRn_oGSm7d69mBdq1QQ-459" vertex="1" connectable="0">
          <mxGeometry x="41.5" y="215.5" width="120" height="60" as="geometry" />
        </mxCell>
        <mxCell id="3FRn_oGSm7d69mBdq1QQ-518" value="" style="rounded=1;whiteSpace=wrap;html=1;shadow=0;glass=0;sketch=0;fillColor=#B1DDF0;strokeColor=#BAC8D3;fontColor=#182E3E;" parent="3FRn_oGSm7d69mBdq1QQ-517" vertex="1">
          <mxGeometry width="120" height="60" as="geometry" />
        </mxCell>
        <mxCell id="3FRn_oGSm7d69mBdq1QQ-519" value="&lt;span style=&quot;color: rgb(0 , 0 , 0) ; font-family: &amp;#34;verdana&amp;#34;&quot;&gt;getTokenPriceList&lt;br&gt;WithMarketData&lt;/span&gt;&lt;font color=&quot;#000000&quot; face=&quot;Verdana&quot;&gt;&lt;br&gt;&lt;/font&gt;" style="text;html=1;strokeColor=none;fillColor=none;align=center;verticalAlign=middle;whiteSpace=wrap;rounded=0;shadow=0;glass=0;sketch=0;fontColor=#182E3E;" parent="3FRn_oGSm7d69mBdq1QQ-517" vertex="1">
          <mxGeometry x="7" y="22" width="106" height="16" as="geometry" />
        </mxCell>
        <mxCell id="3FRn_oGSm7d69mBdq1QQ-511" value="" style="group;fontColor=#182E3E;" parent="3FRn_oGSm7d69mBdq1QQ-459" vertex="1" connectable="0">
          <mxGeometry x="41.5" y="292.5" width="120" height="60" as="geometry" />
        </mxCell>
        <mxCell id="3FRn_oGSm7d69mBdq1QQ-512" value="" style="rounded=1;whiteSpace=wrap;html=1;shadow=0;glass=0;sketch=0;fillColor=#B1DDF0;strokeColor=#BAC8D3;fontColor=#182E3E;" parent="3FRn_oGSm7d69mBdq1QQ-511" vertex="1">
          <mxGeometry width="120" height="60" as="geometry" />
        </mxCell>
        <mxCell id="3FRn_oGSm7d69mBdq1QQ-513" value="&lt;font color=&quot;#000000&quot; face=&quot;Verdana&quot;&gt;getTokenPriceWith&lt;br&gt;MarketData&lt;br&gt;&lt;/font&gt;" style="text;html=1;strokeColor=none;fillColor=none;align=center;verticalAlign=middle;whiteSpace=wrap;rounded=0;shadow=0;glass=0;sketch=0;fontColor=#182E3E;" parent="3FRn_oGSm7d69mBdq1QQ-511" vertex="1">
          <mxGeometry x="7" y="22" width="106" height="16" as="geometry" />
        </mxCell>
        <mxCell id="3FRn_oGSm7d69mBdq1QQ-526" value="" style="group;fontColor=#182E3E;" parent="3FRn_oGSm7d69mBdq1QQ-459" vertex="1" connectable="0">
          <mxGeometry x="36.5" y="376.5" width="120" height="60" as="geometry" />
        </mxCell>
        <mxCell id="3FRn_oGSm7d69mBdq1QQ-527" value="" style="rounded=1;whiteSpace=wrap;html=1;shadow=0;glass=0;sketch=0;fillColor=#B1DDF0;strokeColor=#BAC8D3;fontColor=#182E3E;" parent="3FRn_oGSm7d69mBdq1QQ-526" vertex="1">
          <mxGeometry width="120" height="60" as="geometry" />
        </mxCell>
        <mxCell id="3FRn_oGSm7d69mBdq1QQ-528" value="&lt;font color=&quot;#000000&quot; face=&quot;Verdana&quot;&gt;getPricesWithMarket&lt;br&gt;DataByAddresses&lt;br&gt;&lt;/font&gt;" style="text;html=1;strokeColor=none;fillColor=none;align=center;verticalAlign=middle;whiteSpace=wrap;rounded=0;shadow=0;glass=0;sketch=0;fontColor=#182E3E;" parent="3FRn_oGSm7d69mBdq1QQ-526" vertex="1">
          <mxGeometry x="7" y="22" width="106" height="16" as="geometry" />
        </mxCell>
        <mxCell id="3FRn_oGSm7d69mBdq1QQ-493" value="" style="group;fontColor=#182E3E;" parent="3FRn_oGSm7d69mBdq1QQ-459" vertex="1" connectable="0">
          <mxGeometry x="39" y="462" width="120" height="60" as="geometry" />
        </mxCell>
        <mxCell id="3FRn_oGSm7d69mBdq1QQ-494" value="" style="rounded=1;whiteSpace=wrap;html=1;shadow=0;glass=0;sketch=0;fillColor=#B1DDF0;strokeColor=#BAC8D3;fontColor=#182E3E;" parent="3FRn_oGSm7d69mBdq1QQ-493" vertex="1">
          <mxGeometry width="120" height="60" as="geometry" />
        </mxCell>
        <mxCell id="3FRn_oGSm7d69mBdq1QQ-495" value="&lt;font color=&quot;#000000&quot; face=&quot;Verdana&quot;&gt;getChartData ForCoinId&lt;br&gt;&lt;/font&gt;" style="text;html=1;strokeColor=none;fillColor=none;align=center;verticalAlign=middle;whiteSpace=wrap;rounded=0;shadow=0;glass=0;sketch=0;fontColor=#182E3E;" parent="3FRn_oGSm7d69mBdq1QQ-493" vertex="1">
          <mxGeometry x="7" y="22" width="106" height="16" as="geometry" />
        </mxCell>
        <mxCell id="3FRn_oGSm7d69mBdq1QQ-475" value="WatchlistService" style="swimlane;rounded=1;fillColor=#60a917;strokeColor=#2D7600;fontColor=#ffffff;fontFamily=Verdana;" parent="1" vertex="1">
          <mxGeometry x="-65" y="-1994" width="188" height="292" as="geometry">
            <mxRectangle x="362" y="106" width="89" height="23" as="alternateBounds" />
          </mxGeometry>
        </mxCell>
        <mxCell id="3FRn_oGSm7d69mBdq1QQ-476" style="edgeStyle=orthogonalEdgeStyle;orthogonalLoop=1;jettySize=auto;html=1;entryX=0;entryY=0.5;entryDx=0;entryDy=0;rounded=0;curved=1;exitX=0;exitY=0.5;exitDx=0;exitDy=0;dashed=1;labelBackgroundColor=#09555B;strokeColor=#EEEEEE;fontColor=#FFFFFF;" parent="3FRn_oGSm7d69mBdq1QQ-475" edge="1">
          <mxGeometry relative="1" as="geometry">
            <mxPoint x="25" y="110.99999999999989" as="sourcePoint" />
          </mxGeometry>
        </mxCell>
        <mxCell id="3FRn_oGSm7d69mBdq1QQ-477" value="" style="group;fontColor=#182E3E;" parent="3FRn_oGSm7d69mBdq1QQ-475" vertex="1" connectable="0">
          <mxGeometry x="39" y="57" width="120" height="60" as="geometry" />
        </mxCell>
        <mxCell id="3FRn_oGSm7d69mBdq1QQ-478" value="" style="rounded=1;whiteSpace=wrap;html=1;shadow=0;glass=0;sketch=0;fillColor=#B1DDF0;strokeColor=#BAC8D3;fontColor=#182E3E;" parent="3FRn_oGSm7d69mBdq1QQ-477" vertex="1">
          <mxGeometry width="120" height="60" as="geometry" />
        </mxCell>
        <mxCell id="3FRn_oGSm7d69mBdq1QQ-479" value="&lt;font color=&quot;#000000&quot; face=&quot;Verdana&quot;&gt;getTokens&lt;br&gt;&lt;/font&gt;" style="text;html=1;strokeColor=none;fillColor=none;align=center;verticalAlign=middle;whiteSpace=wrap;rounded=0;shadow=0;glass=0;sketch=0;fontColor=#182E3E;" parent="3FRn_oGSm7d69mBdq1QQ-477" vertex="1">
          <mxGeometry x="7" y="22" width="106" height="16" as="geometry" />
        </mxCell>
        <mxCell id="3FRn_oGSm7d69mBdq1QQ-481" value="" style="group;fontColor=#182E3E;" parent="3FRn_oGSm7d69mBdq1QQ-475" vertex="1" connectable="0">
          <mxGeometry x="39" y="130" width="120" height="60" as="geometry" />
        </mxCell>
        <mxCell id="3FRn_oGSm7d69mBdq1QQ-482" value="" style="rounded=1;whiteSpace=wrap;html=1;shadow=0;glass=0;sketch=0;fillColor=#B1DDF0;strokeColor=#BAC8D3;fontColor=#182E3E;" parent="3FRn_oGSm7d69mBdq1QQ-481" vertex="1">
          <mxGeometry width="120" height="60" as="geometry" />
        </mxCell>
        <mxCell id="3FRn_oGSm7d69mBdq1QQ-483" value="&lt;font color=&quot;#000000&quot; face=&quot;Verdana&quot;&gt;tokenSearch&lt;br&gt;&lt;/font&gt;" style="text;html=1;strokeColor=none;fillColor=none;align=center;verticalAlign=middle;whiteSpace=wrap;rounded=0;shadow=0;glass=0;sketch=0;fontColor=#182E3E;" parent="3FRn_oGSm7d69mBdq1QQ-481" vertex="1">
          <mxGeometry x="7" y="22" width="106" height="16" as="geometry" />
        </mxCell>
        <mxCell id="3FRn_oGSm7d69mBdq1QQ-521" value="" style="group;fontColor=#182E3E;" parent="3FRn_oGSm7d69mBdq1QQ-475" vertex="1" connectable="0">
          <mxGeometry x="39" y="211" width="120" height="60" as="geometry" />
        </mxCell>
        <mxCell id="3FRn_oGSm7d69mBdq1QQ-522" value="" style="rounded=1;whiteSpace=wrap;html=1;shadow=0;glass=0;sketch=0;fillColor=#B1DDF0;strokeColor=#BAC8D3;fontColor=#182E3E;" parent="3FRn_oGSm7d69mBdq1QQ-521" vertex="1">
          <mxGeometry width="120" height="60" as="geometry" />
        </mxCell>
        <mxCell id="3FRn_oGSm7d69mBdq1QQ-523" value="&lt;font color=&quot;#000000&quot; face=&quot;Verdana&quot;&gt;getPrices&lt;br&gt;&lt;/font&gt;" style="text;html=1;strokeColor=none;fillColor=none;align=center;verticalAlign=middle;whiteSpace=wrap;rounded=0;shadow=0;glass=0;sketch=0;fontColor=#182E3E;" parent="3FRn_oGSm7d69mBdq1QQ-521" vertex="1">
          <mxGeometry x="7" y="22" width="106" height="16" as="geometry" />
        </mxCell>
        <mxCell id="3FRn_oGSm7d69mBdq1QQ-480" style="edgeStyle=entityRelationEdgeStyle;sketch=0;orthogonalLoop=1;jettySize=auto;html=1;shadow=0;labelBackgroundColor=#09555B;fontFamily=Verdana;fontSize=8;fontColor=#FFFFFF;endArrow=openThin;endFill=0;sourcePerimeterSpacing=4;targetPerimeterSpacing=4;strokeColor=#EEEEEE;strokeWidth=3;" parent="1" source="3FRn_oGSm7d69mBdq1QQ-466" target="3FRn_oGSm7d69mBdq1QQ-478" edge="1">
          <mxGeometry relative="1" as="geometry" />
        </mxCell>
        <mxCell id="3FRn_oGSm7d69mBdq1QQ-485" style="edgeStyle=entityRelationEdgeStyle;sketch=0;orthogonalLoop=1;jettySize=auto;html=1;shadow=0;labelBackgroundColor=#09555B;fontFamily=Verdana;fontSize=8;fontColor=#FFFFFF;endArrow=openThin;endFill=0;sourcePerimeterSpacing=4;targetPerimeterSpacing=4;strokeColor=#EEEEEE;strokeWidth=3;" parent="1" source="3FRn_oGSm7d69mBdq1QQ-466" target="3FRn_oGSm7d69mBdq1QQ-482" edge="1">
          <mxGeometry relative="1" as="geometry" />
        </mxCell>
        <mxCell id="3FRn_oGSm7d69mBdq1QQ-489" style="edgeStyle=entityRelationEdgeStyle;sketch=0;orthogonalLoop=1;jettySize=auto;html=1;shadow=0;labelBackgroundColor=#09555B;fontFamily=Verdana;fontSize=8;fontColor=#FFFFFF;endArrow=openThin;endFill=0;sourcePerimeterSpacing=4;targetPerimeterSpacing=4;strokeColor=#EEEEEE;strokeWidth=3;" parent="1" source="3FRn_oGSm7d69mBdq1QQ-478" target="3FRn_oGSm7d69mBdq1QQ-487" edge="1">
          <mxGeometry relative="1" as="geometry" />
        </mxCell>
        <mxCell id="3FRn_oGSm7d69mBdq1QQ-496" style="edgeStyle=entityRelationEdgeStyle;sketch=0;orthogonalLoop=1;jettySize=auto;html=1;shadow=0;labelBackgroundColor=#09555B;fontFamily=Verdana;fontSize=8;fontColor=#FFFFFF;endArrow=openThin;endFill=0;sourcePerimeterSpacing=4;targetPerimeterSpacing=4;strokeColor=#EEEEEE;strokeWidth=3;" parent="1" source="3FRn_oGSm7d69mBdq1QQ-491" target="3FRn_oGSm7d69mBdq1QQ-494" edge="1">
          <mxGeometry relative="1" as="geometry" />
        </mxCell>
        <mxCell id="3FRn_oGSm7d69mBdq1QQ-506" style="edgeStyle=entityRelationEdgeStyle;sketch=0;orthogonalLoop=1;jettySize=auto;html=1;shadow=0;labelBackgroundColor=#09555B;fontFamily=Verdana;fontSize=8;fontColor=#FFFFFF;endArrow=openThin;endFill=0;sourcePerimeterSpacing=4;targetPerimeterSpacing=4;strokeColor=#EEEEEE;strokeWidth=3;" parent="1" source="3FRn_oGSm7d69mBdq1QQ-504" target="3FRn_oGSm7d69mBdq1QQ-482" edge="1">
          <mxGeometry relative="1" as="geometry" />
        </mxCell>
        <mxCell id="3FRn_oGSm7d69mBdq1QQ-507" style="edgeStyle=entityRelationEdgeStyle;sketch=0;orthogonalLoop=1;jettySize=auto;html=1;shadow=0;labelBackgroundColor=#09555B;fontFamily=Verdana;fontSize=8;fontColor=#FFFFFF;endArrow=openThin;endFill=0;sourcePerimeterSpacing=4;targetPerimeterSpacing=4;strokeColor=#EEEEEE;strokeWidth=3;" parent="1" source="3FRn_oGSm7d69mBdq1QQ-499" target="3FRn_oGSm7d69mBdq1QQ-504" edge="1">
          <mxGeometry relative="1" as="geometry" />
        </mxCell>
        <mxCell id="3FRn_oGSm7d69mBdq1QQ-514" style="edgeStyle=entityRelationEdgeStyle;sketch=0;orthogonalLoop=1;jettySize=auto;html=1;shadow=0;labelBackgroundColor=#09555B;fontFamily=Verdana;fontSize=8;fontColor=#FFFFFF;endArrow=openThin;endFill=0;sourcePerimeterSpacing=4;targetPerimeterSpacing=4;strokeColor=#EEEEEE;strokeWidth=3;" parent="1" source="3FRn_oGSm7d69mBdq1QQ-509" target="3FRn_oGSm7d69mBdq1QQ-512" edge="1">
          <mxGeometry relative="1" as="geometry" />
        </mxCell>
        <mxCell id="3FRn_oGSm7d69mBdq1QQ-515" style="edgeStyle=entityRelationEdgeStyle;sketch=0;orthogonalLoop=1;jettySize=auto;html=1;shadow=0;labelBackgroundColor=#09555B;fontFamily=Verdana;fontSize=8;fontColor=#FFFFFF;endArrow=openThin;endFill=0;sourcePerimeterSpacing=4;targetPerimeterSpacing=4;strokeColor=#EEEEEE;strokeWidth=3;" parent="1" source="3FRn_oGSm7d69mBdq1QQ-512" target="173" edge="1">
          <mxGeometry relative="1" as="geometry" />
        </mxCell>
        <mxCell id="3FRn_oGSm7d69mBdq1QQ-516" style="edgeStyle=entityRelationEdgeStyle;sketch=0;orthogonalLoop=1;jettySize=auto;html=1;shadow=0;labelBackgroundColor=#09555B;fontFamily=Verdana;fontSize=8;fontColor=#FFFFFF;endArrow=openThin;endFill=0;sourcePerimeterSpacing=4;targetPerimeterSpacing=4;strokeColor=#EEEEEE;strokeWidth=3;" parent="1" source="3FRn_oGSm7d69mBdq1QQ-512" target="191" edge="1">
          <mxGeometry relative="1" as="geometry" />
        </mxCell>
        <mxCell id="3FRn_oGSm7d69mBdq1QQ-520" style="edgeStyle=entityRelationEdgeStyle;sketch=0;orthogonalLoop=1;jettySize=auto;html=1;shadow=0;labelBackgroundColor=#09555B;fontFamily=Verdana;fontSize=8;fontColor=#FFFFFF;endArrow=openThin;endFill=0;sourcePerimeterSpacing=4;targetPerimeterSpacing=4;strokeColor=#EEEEEE;strokeWidth=3;" parent="1" source="3FRn_oGSm7d69mBdq1QQ-509" target="3FRn_oGSm7d69mBdq1QQ-518" edge="1">
          <mxGeometry relative="1" as="geometry" />
        </mxCell>
        <mxCell id="3FRn_oGSm7d69mBdq1QQ-524" style="edgeStyle=entityRelationEdgeStyle;sketch=0;orthogonalLoop=1;jettySize=auto;html=1;shadow=0;labelBackgroundColor=#09555B;fontFamily=Verdana;fontSize=8;fontColor=#FFFFFF;endArrow=openThin;endFill=0;sourcePerimeterSpacing=4;targetPerimeterSpacing=4;strokeColor=#EEEEEE;strokeWidth=3;" parent="1" source="3FRn_oGSm7d69mBdq1QQ-518" target="3FRn_oGSm7d69mBdq1QQ-522" edge="1">
          <mxGeometry relative="1" as="geometry" />
        </mxCell>
        <mxCell id="3FRn_oGSm7d69mBdq1QQ-525" style="edgeStyle=entityRelationEdgeStyle;sketch=0;orthogonalLoop=1;jettySize=auto;html=1;shadow=0;labelBackgroundColor=#09555B;fontFamily=Verdana;fontSize=8;fontColor=#FFFFFF;endArrow=openThin;endFill=0;sourcePerimeterSpacing=4;targetPerimeterSpacing=4;strokeColor=#EEEEEE;strokeWidth=3;" parent="1" source="3FRn_oGSm7d69mBdq1QQ-518" target="3FRn_oGSm7d69mBdq1QQ-482" edge="1">
          <mxGeometry relative="1" as="geometry" />
        </mxCell>
        <mxCell id="3FRn_oGSm7d69mBdq1QQ-532" style="edgeStyle=entityRelationEdgeStyle;sketch=0;orthogonalLoop=1;jettySize=auto;html=1;shadow=0;labelBackgroundColor=#09555B;fontFamily=Verdana;fontSize=8;fontColor=#FFFFFF;endArrow=openThin;endFill=0;sourcePerimeterSpacing=4;targetPerimeterSpacing=4;strokeColor=#EEEEEE;strokeWidth=3;" parent="1" source="3FRn_oGSm7d69mBdq1QQ-530" target="3FRn_oGSm7d69mBdq1QQ-527" edge="1">
          <mxGeometry relative="1" as="geometry" />
        </mxCell>
        <mxCell id="3FRn_oGSm7d69mBdq1QQ-533" style="edgeStyle=entityRelationEdgeStyle;sketch=0;orthogonalLoop=1;jettySize=auto;html=1;shadow=0;labelBackgroundColor=#09555B;fontFamily=Verdana;fontSize=8;fontColor=#FFFFFF;endArrow=openThin;endFill=0;sourcePerimeterSpacing=4;targetPerimeterSpacing=4;strokeColor=#EEEEEE;strokeWidth=3;" parent="1" source="3FRn_oGSm7d69mBdq1QQ-527" target="191" edge="1">
          <mxGeometry relative="1" as="geometry" />
        </mxCell>
        <mxCell id="3FRn_oGSm7d69mBdq1QQ-534" value="covalent-sdk" style="swimlane;rounded=1;fillColor=#f0a30a;strokeColor=#BD7000;fontColor=#000000;fontFamily=Verdana;" parent="1" vertex="1">
          <mxGeometry x="-1424.5" y="-1130" width="183" height="138" as="geometry">
            <mxRectangle x="362" y="106" width="89" height="23" as="alternateBounds" />
          </mxGeometry>
        </mxCell>
        <mxCell id="3FRn_oGSm7d69mBdq1QQ-535" style="edgeStyle=orthogonalEdgeStyle;orthogonalLoop=1;jettySize=auto;html=1;entryX=0;entryY=0.5;entryDx=0;entryDy=0;rounded=0;curved=1;exitX=0;exitY=0.5;exitDx=0;exitDy=0;dashed=1;labelBackgroundColor=#09555B;strokeColor=#EEEEEE;fontColor=#FFFFFF;" parent="3FRn_oGSm7d69mBdq1QQ-534" edge="1">
          <mxGeometry relative="1" as="geometry">
            <mxPoint x="25" y="110.99999999999989" as="sourcePoint" />
          </mxGeometry>
        </mxCell>
        <mxCell id="3FRn_oGSm7d69mBdq1QQ-536" value="" style="group;fontColor=#182E3E;" parent="3FRn_oGSm7d69mBdq1QQ-534" vertex="1" connectable="0">
          <mxGeometry x="21" y="50" width="142" height="60" as="geometry" />
        </mxCell>
        <mxCell id="3FRn_oGSm7d69mBdq1QQ-537" value="" style="rounded=1;whiteSpace=wrap;html=1;shadow=0;glass=0;sketch=0;fillColor=#B1DDF0;strokeColor=#BAC8D3;fontColor=#182E3E;" parent="3FRn_oGSm7d69mBdq1QQ-536" vertex="1">
          <mxGeometry width="142" height="60" as="geometry" />
        </mxCell>
        <mxCell id="3FRn_oGSm7d69mBdq1QQ-538" value="&lt;font color=&quot;#000000&quot; face=&quot;Verdana&quot;&gt;getAddressBalancesV2&lt;br&gt;&lt;/font&gt;" style="text;html=1;strokeColor=none;fillColor=none;align=center;verticalAlign=middle;whiteSpace=wrap;rounded=0;shadow=0;glass=0;sketch=0;fontColor=#182E3E;" parent="3FRn_oGSm7d69mBdq1QQ-536" vertex="1">
          <mxGeometry x="8.283333333333333" y="22" width="125.43333333333334" height="16" as="geometry" />
        </mxCell>
        <mxCell id="3FRn_oGSm7d69mBdq1QQ-551" style="edgeStyle=entityRelationEdgeStyle;sketch=0;orthogonalLoop=1;jettySize=auto;html=1;shadow=0;labelBackgroundColor=#09555B;fontFamily=Verdana;fontSize=8;fontColor=#FFFFFF;endArrow=openThin;endFill=0;sourcePerimeterSpacing=4;targetPerimeterSpacing=4;strokeColor=#EEEEEE;strokeWidth=3;" parent="1" source="3FRn_oGSm7d69mBdq1QQ-538" target="306" edge="1">
          <mxGeometry relative="1" as="geometry" />
        </mxCell>
        <mxCell id="3FRn_oGSm7d69mBdq1QQ-552" value="etherscan-sdk" style="swimlane;rounded=1;fillColor=#f0a30a;strokeColor=#BD7000;fontColor=#000000;fontFamily=Verdana;" parent="1" vertex="1">
          <mxGeometry x="-1738" y="-1680" width="183" height="208" as="geometry">
            <mxRectangle x="362" y="106" width="89" height="23" as="alternateBounds" />
          </mxGeometry>
        </mxCell>
        <mxCell id="3FRn_oGSm7d69mBdq1QQ-553" style="edgeStyle=orthogonalEdgeStyle;orthogonalLoop=1;jettySize=auto;html=1;entryX=0;entryY=0.5;entryDx=0;entryDy=0;rounded=0;curved=1;exitX=0;exitY=0.5;exitDx=0;exitDy=0;dashed=1;labelBackgroundColor=#09555B;strokeColor=#EEEEEE;fontColor=#FFFFFF;" parent="3FRn_oGSm7d69mBdq1QQ-552" edge="1">
          <mxGeometry relative="1" as="geometry">
            <mxPoint x="25" y="110.99999999999989" as="sourcePoint" />
          </mxGeometry>
        </mxCell>
        <mxCell id="3FRn_oGSm7d69mBdq1QQ-557" value="" style="group;perimeterSpacing=4;strokeWidth=7;" parent="3FRn_oGSm7d69mBdq1QQ-552" vertex="1" connectable="0">
          <mxGeometry x="29" y="51" width="120" height="60" as="geometry" />
        </mxCell>
        <mxCell id="3FRn_oGSm7d69mBdq1QQ-558" value="" style="rounded=1;whiteSpace=wrap;html=1;shadow=0;glass=0;sketch=0;fillColor=#B1DDF0;strokeColor=#BAC8D3;fontColor=#182E3E;" parent="3FRn_oGSm7d69mBdq1QQ-557" vertex="1">
          <mxGeometry width="120" height="60" as="geometry" />
        </mxCell>
        <mxCell id="3FRn_oGSm7d69mBdq1QQ-559" value="&lt;font color=&quot;#000000&quot; face=&quot;Verdana&quot;&gt;getErc20Txs&lt;/font&gt;" style="text;html=1;strokeColor=none;fillColor=none;align=center;verticalAlign=middle;whiteSpace=wrap;rounded=0;shadow=0;glass=0;sketch=0;fontColor=#182E3E;" parent="3FRn_oGSm7d69mBdq1QQ-557" vertex="1">
          <mxGeometry x="7" y="22" width="106" height="16" as="geometry" />
        </mxCell>
        <mxCell id="3FRn_oGSm7d69mBdq1QQ-561" value="" style="group;perimeterSpacing=4;strokeWidth=7;" parent="3FRn_oGSm7d69mBdq1QQ-552" vertex="1" connectable="0">
          <mxGeometry x="29" y="128" width="120" height="60" as="geometry" />
        </mxCell>
        <mxCell id="3FRn_oGSm7d69mBdq1QQ-562" value="" style="rounded=1;whiteSpace=wrap;html=1;shadow=0;glass=0;sketch=0;fillColor=#B1DDF0;strokeColor=#BAC8D3;fontColor=#182E3E;" parent="3FRn_oGSm7d69mBdq1QQ-561" vertex="1">
          <mxGeometry width="120" height="60" as="geometry" />
        </mxCell>
        <mxCell id="3FRn_oGSm7d69mBdq1QQ-563" value="&lt;font color=&quot;#000000&quot; face=&quot;Verdana&quot;&gt;getNormalTxs&lt;/font&gt;" style="text;html=1;strokeColor=none;fillColor=none;align=center;verticalAlign=middle;whiteSpace=wrap;rounded=0;shadow=0;glass=0;sketch=0;fontColor=#182E3E;" parent="3FRn_oGSm7d69mBdq1QQ-561" vertex="1">
          <mxGeometry x="7" y="22" width="106" height="16" as="geometry" />
        </mxCell>
        <mxCell id="3FRn_oGSm7d69mBdq1QQ-564" style="edgeStyle=entityRelationEdgeStyle;sketch=0;orthogonalLoop=1;jettySize=auto;html=1;shadow=0;labelBackgroundColor=#09555B;fontFamily=Verdana;fontSize=8;fontColor=#FFFFFF;endArrow=openThin;endFill=0;sourcePerimeterSpacing=4;targetPerimeterSpacing=4;strokeColor=#EEEEEE;strokeWidth=3;" parent="1" source="3FRn_oGSm7d69mBdq1QQ-562" target="3FRn_oGSm7d69mBdq1QQ-370" edge="1">
          <mxGeometry relative="1" as="geometry" />
        </mxCell>
        <mxCell id="3FRn_oGSm7d69mBdq1QQ-565" value="&lt;h1&gt;&lt;font style=&quot;font-size: 36px&quot;&gt;How to use this&lt;/font&gt;&lt;/h1&gt;&lt;p&gt;&lt;span style=&quot;font-size: 24px&quot;&gt;We are collecting various data using &lt;span style=&quot;background-color: rgb(96 , 169 , 23)&quot;&gt;Services&lt;/span&gt; via &lt;span style=&quot;background-color: rgb(27 , 161 , 226)&quot;&gt;Providers&lt;/span&gt; and &lt;span style=&quot;background-color: rgb(240 , 163 , 10)&quot;&gt;SDKs&lt;/span&gt;.&lt;/span&gt;&lt;br&gt;&lt;/p&gt;&lt;p&gt;&lt;font style=&quot;font-size: 24px&quot;&gt;Start from &lt;span style=&quot;background-color: rgb(160 , 82 , 45)&quot;&gt;Store&lt;/span&gt; and work your way to see where the data is coming from.&lt;/font&gt;&lt;/p&gt;&lt;p&gt;&lt;font style=&quot;font-size: 24px&quot;&gt;Arrows are pointing from source to destination of data flow.&lt;/font&gt;&lt;/p&gt;" style="text;html=1;strokeColor=none;fillColor=none;spacing=5;spacingTop=-20;whiteSpace=wrap;overflow=hidden;rounded=0;fontFamily=Verdana;fontSize=8;fontColor=#FFFFFF;" parent="1" vertex="1">
          <mxGeometry x="172" y="-1223" width="603" height="239" as="geometry" />
        </mxCell>
        <mxCell id="330" value="WCService" style="swimlane;rounded=1;fillColor=#60a917;strokeColor=#2D7600;fontColor=#ffffff;fontFamily=Verdana;" parent="1" vertex="1">
          <mxGeometry x="-1181" y="-1157.5" width="156" height="286" as="geometry">
            <mxRectangle x="362" y="106" width="89" height="23" as="alternateBounds" />
          </mxGeometry>
        </mxCell>
        <mxCell id="331" style="edgeStyle=orthogonalEdgeStyle;orthogonalLoop=1;jettySize=auto;html=1;entryX=0;entryY=0.5;entryDx=0;entryDy=0;rounded=0;curved=1;exitX=0;exitY=0.5;exitDx=0;exitDy=0;dashed=1;labelBackgroundColor=#09555B;strokeColor=#EEEEEE;fontColor=#FFFFFF;" parent="330" edge="1">
          <mxGeometry relative="1" as="geometry">
            <mxPoint x="25" y="110.99999999999989" as="sourcePoint" />
          </mxGeometry>
        </mxCell>
        <mxCell id="364" value="" style="group;perimeterSpacing=4;strokeWidth=7;" parent="330" vertex="1" connectable="0">
          <mxGeometry x="18" y="205" width="120" height="60" as="geometry" />
        </mxCell>
        <mxCell id="365" value="" style="rounded=1;whiteSpace=wrap;html=1;shadow=0;glass=0;sketch=0;fillColor=#B1DDF0;strokeColor=#BAC8D3;fontColor=#182E3E;" parent="364" vertex="1">
          <mxGeometry width="120" height="60" as="geometry" />
        </mxCell>
        <mxCell id="366" value="&lt;font color=&quot;#000000&quot; face=&quot;Verdana&quot;&gt;CreateClient&lt;/font&gt;" style="text;html=1;strokeColor=none;fillColor=none;align=center;verticalAlign=middle;whiteSpace=wrap;rounded=0;shadow=0;glass=0;sketch=0;fontColor=#182E3E;" parent="364" vertex="1">
          <mxGeometry x="7" y="22" width="106" height="16" as="geometry" />
        </mxCell>
        <mxCell id="374" value="" style="group;perimeterSpacing=4;strokeWidth=7;" parent="330" vertex="1" connectable="0">
          <mxGeometry x="18" y="120" width="120" height="60" as="geometry" />
        </mxCell>
        <mxCell id="375" value="" style="rounded=1;whiteSpace=wrap;html=1;shadow=0;glass=0;sketch=0;fillColor=#B1DDF0;strokeColor=#BAC8D3;fontColor=#182E3E;" parent="374" vertex="1">
          <mxGeometry width="120" height="60" as="geometry" />
        </mxCell>
        <mxCell id="376" value="&lt;font color=&quot;#000000&quot; face=&quot;Verdana&quot;&gt;connectSession&lt;/font&gt;" style="text;html=1;strokeColor=none;fillColor=none;align=center;verticalAlign=middle;whiteSpace=wrap;rounded=0;shadow=0;glass=0;sketch=0;fontColor=#182E3E;" parent="374" vertex="1">
          <mxGeometry x="7" y="22" width="106" height="16" as="geometry" />
        </mxCell>
        <mxCell id="377" style="edgeStyle=entityRelationEdgeStyle;sketch=0;orthogonalLoop=1;jettySize=auto;html=1;shadow=0;labelBackgroundColor=#09555B;fontFamily=Verdana;fontSize=8;fontColor=#FFFFFF;endArrow=openThin;endFill=0;sourcePerimeterSpacing=4;targetPerimeterSpacing=4;strokeColor=#EEEEEE;strokeWidth=3;" parent="330" source="365" target="375" edge="1">
          <mxGeometry relative="1" as="geometry" />
        </mxCell>
        <mxCell id="378" value="onApproveSession" style="edgeLabel;html=1;align=center;verticalAlign=middle;resizable=0;points=[];fontSize=8;fontFamily=Verdana;fontColor=#FFFFFF;labelBackgroundColor=none;" parent="377" vertex="1" connectable="0">
          <mxGeometry x="-0.0949" y="-1" relative="1" as="geometry">
            <mxPoint x="42" y="-8" as="offset" />
          </mxGeometry>
        </mxCell>
        <mxCell id="387" value="" style="group;fontColor=#182E3E;" parent="330" vertex="1" connectable="0">
          <mxGeometry x="18" y="40.5" width="120" height="60" as="geometry" />
        </mxCell>
        <mxCell id="388" value="" style="rounded=1;whiteSpace=wrap;html=1;shadow=0;glass=0;sketch=0;fillColor=#B1DDF0;strokeColor=#BAC8D3;fontColor=#182E3E;" parent="387" vertex="1">
          <mxGeometry width="120" height="60" as="geometry" />
        </mxCell>
        <mxCell id="389" value="&lt;font color=&quot;#000000&quot; face=&quot;Verdana&quot;&gt;init&lt;/font&gt;" style="text;html=1;strokeColor=none;fillColor=none;align=center;verticalAlign=middle;whiteSpace=wrap;rounded=0;shadow=0;glass=0;sketch=0;fontColor=#182E3E;" parent="387" vertex="1">
          <mxGeometry x="7" y="14" width="106" height="16" as="geometry" />
        </mxCell>
        <mxCell id="390" value="(connect to all dApps)" style="text;strokeColor=none;fillColor=none;align=center;verticalAlign=middle;rounded=0;shadow=0;glass=0;sketch=0;fontColor=#182E3E;spacing=2;whiteSpace=wrap;html=1;fontFamily=Verdana;fontSize=8;" parent="387" vertex="1">
          <mxGeometry x="7" y="33" width="106" height="10" as="geometry" />
        </mxCell>
        <mxCell id="340" value="WalletConnect" style="swimlane;rounded=1;fillColor=#1ba1e2;strokeColor=#006EAF;fontColor=#ffffff;" parent="1" vertex="1">
          <mxGeometry x="-1427" y="-950" width="188" height="209" as="geometry">
            <mxRectangle x="362" y="106" width="89" height="23" as="alternateBounds" />
          </mxGeometry>
        </mxCell>
        <mxCell id="341" style="edgeStyle=orthogonalEdgeStyle;orthogonalLoop=1;jettySize=auto;html=1;entryX=0;entryY=0.5;entryDx=0;entryDy=0;rounded=0;curved=1;exitX=0;exitY=0.5;exitDx=0;exitDy=0;dashed=1;labelBackgroundColor=#09555B;strokeColor=#EEEEEE;fontColor=#FFFFFF;" parent="340" edge="1">
          <mxGeometry relative="1" as="geometry">
            <mxPoint x="25" y="110.99999999999989" as="sourcePoint" />
          </mxGeometry>
        </mxCell>
        <mxCell id="342" value="" style="group;perimeterSpacing=4;strokeWidth=7;" parent="340" vertex="1" connectable="0">
          <mxGeometry x="27" y="52" width="120" height="60" as="geometry" />
        </mxCell>
        <mxCell id="343" value="" style="rounded=1;whiteSpace=wrap;html=1;shadow=0;glass=0;sketch=0;fillColor=#B1DDF0;strokeColor=#BAC8D3;fontColor=#182E3E;" parent="342" vertex="1">
          <mxGeometry width="120" height="60" as="geometry" />
        </mxCell>
        <mxCell id="344" value="&lt;font color=&quot;#000000&quot; face=&quot;Verdana&quot;&gt;ScanQRcode&lt;/font&gt;" style="text;html=1;strokeColor=none;fillColor=none;align=center;verticalAlign=middle;whiteSpace=wrap;rounded=0;shadow=0;glass=0;sketch=0;fontColor=#182E3E;" parent="342" vertex="1">
          <mxGeometry x="7" y="22" width="106" height="16" as="geometry" />
        </mxCell>
        <mxCell id="345" value="" style="group;perimeterSpacing=4;strokeColor=none;strokeWidth=7;fontColor=#182E3E;" parent="340" vertex="1" connectable="0">
          <mxGeometry x="27" y="129" width="120" height="60" as="geometry" />
        </mxCell>
        <mxCell id="346" value="" style="rounded=1;whiteSpace=wrap;html=1;shadow=0;glass=0;sketch=0;fillColor=#B1DDF0;strokeColor=#BAC8D3;fontColor=#182E3E;" parent="345" vertex="1">
          <mxGeometry width="120" height="60" as="geometry" />
        </mxCell>
        <mxCell id="347" value="&lt;font color=&quot;#000000&quot; face=&quot;Verdana&quot;&gt;CovalentNft&lt;br&gt;Provider&lt;/font&gt;" style="text;html=1;strokeColor=none;fillColor=none;align=center;verticalAlign=middle;whiteSpace=wrap;rounded=0;shadow=0;glass=0;sketch=0;fontColor=#182E3E;" parent="345" vertex="1">
          <mxGeometry x="7" y="22" width="106" height="16" as="geometry" />
        </mxCell>
        <mxCell id="369" value="Wallet Connect" style="ellipse;shape=cloud;whiteSpace=wrap;html=1;fillColor=none;" parent="1" vertex="1">
          <mxGeometry x="-1189" y="-828" width="166" height="118" as="geometry" />
        </mxCell>
        <mxCell id="370" style="edgeStyle=entityRelationEdgeStyle;sketch=0;orthogonalLoop=1;jettySize=auto;html=1;shadow=0;labelBackgroundColor=#09555B;fontFamily=Verdana;fontSize=8;fontColor=#FFFFFF;endArrow=openThin;endFill=0;sourcePerimeterSpacing=4;targetPerimeterSpacing=4;strokeColor=#EEEEEE;strokeWidth=3;" parent="1" source="365" target="369" edge="1">
          <mxGeometry relative="1" as="geometry" />
        </mxCell>
        <mxCell id="371" value="handshake" style="edgeLabel;html=1;align=center;verticalAlign=middle;resizable=0;points=[];fontSize=8;fontFamily=Verdana;fontColor=#FFFFFF;" parent="370" vertex="1" connectable="0">
          <mxGeometry x="0.1039" y="3" relative="1" as="geometry">
            <mxPoint as="offset" />
          </mxGeometry>
        </mxCell>
        <mxCell id="372" style="edgeStyle=entityRelationEdgeStyle;sketch=0;orthogonalLoop=1;jettySize=auto;html=1;shadow=0;labelBackgroundColor=#09555B;fontFamily=Verdana;fontSize=8;fontColor=#FFFFFF;endArrow=openThin;endFill=0;sourcePerimeterSpacing=4;targetPerimeterSpacing=4;strokeColor=#EEEEEE;strokeWidth=3;" parent="1" source="344" target="365" edge="1">
          <mxGeometry relative="1" as="geometry" />
        </mxCell>
        <mxCell id="379" style="edgeStyle=entityRelationEdgeStyle;sketch=0;orthogonalLoop=1;jettySize=auto;html=1;shadow=0;labelBackgroundColor=#09555B;fontFamily=Verdana;fontSize=8;fontColor=#FFFFFF;endArrow=openThin;endFill=0;sourcePerimeterSpacing=4;targetPerimeterSpacing=4;strokeColor=#EEEEEE;strokeWidth=3;" parent="1" source="375" target="328" edge="1">
          <mxGeometry relative="1" as="geometry" />
        </mxCell>
        <mxCell id="391" style="edgeStyle=entityRelationEdgeStyle;sketch=0;orthogonalLoop=1;jettySize=auto;html=1;shadow=0;labelBackgroundColor=#09555B;fontFamily=Verdana;fontSize=8;fontColor=#FFFFFF;endArrow=openThin;endFill=0;sourcePerimeterSpacing=4;targetPerimeterSpacing=4;strokeColor=#EEEEEE;strokeWidth=3;" parent="1" source="328" target="388" edge="1">
          <mxGeometry relative="1" as="geometry" />
        </mxCell>
      </root>
    </mxGraphModel>
  </diagram>
  <diagram name="Network store" id="dFFiNFt_rRaHIUI1PMvj">
    <mxGraphModel dx="2942" dy="2742" grid="0" gridSize="10" guides="1" tooltips="1" connect="1" arrows="1" fold="1" page="0" pageScale="1" pageWidth="850" pageHeight="1100" background="#09555B" math="0" shadow="0">
      <root>
        <mxCell id="oEa1LQWHLjVbUUgCBqCm-0" />
        <mxCell id="oEa1LQWHLjVbUUgCBqCm-1" parent="oEa1LQWHLjVbUUgCBqCm-0" />
        <mxCell id="_VwyDAd4XzTw5CxPkTpG-0" value="State" style="swimlane;rounded=1;fillColor=#B1DDF0;strokeColor=#BAC8D3;fontColor=#182E3E;fontFamily=Verdana;" parent="oEa1LQWHLjVbUUgCBqCm-1" vertex="1">
          <mxGeometry x="-795" y="-1519" width="148" height="347" as="geometry">
            <mxRectangle x="362" y="106" width="89" height="23" as="alternateBounds" />
          </mxGeometry>
        </mxCell>
        <mxCell id="_VwyDAd4XzTw5CxPkTpG-1" style="edgeStyle=orthogonalEdgeStyle;orthogonalLoop=1;jettySize=auto;html=1;entryX=0;entryY=0.5;entryDx=0;entryDy=0;rounded=0;curved=1;exitX=0;exitY=0.5;exitDx=0;exitDy=0;dashed=1;labelBackgroundColor=#09555B;strokeColor=#EEEEEE;fontColor=#FFFFFF;" parent="_VwyDAd4XzTw5CxPkTpG-0" edge="1">
          <mxGeometry relative="1" as="geometry">
            <mxPoint x="25" y="110.99999999999989" as="sourcePoint" />
          </mxGeometry>
        </mxCell>
        <mxCell id="_VwyDAd4XzTw5CxPkTpG-2" value="" style="group;fontColor=#182E3E;" parent="_VwyDAd4XzTw5CxPkTpG-0" vertex="1" connectable="0">
          <mxGeometry x="14.5" y="189" width="120" height="60" as="geometry" />
        </mxCell>
        <mxCell id="_VwyDAd4XzTw5CxPkTpG-3" value="" style="rounded=1;whiteSpace=wrap;html=1;shadow=0;glass=0;sketch=0;fillColor=#B1DDF0;strokeColor=#BAC8D3;fontColor=#182E3E;" parent="_VwyDAd4XzTw5CxPkTpG-2" vertex="1">
          <mxGeometry width="120" height="60" as="geometry" />
        </mxCell>
        <mxCell id="_VwyDAd4XzTw5CxPkTpG-4" value="&lt;font color=&quot;#000000&quot; face=&quot;Verdana&quot;&gt;favorites&lt;/font&gt;" style="text;html=1;strokeColor=none;fillColor=none;align=center;verticalAlign=middle;whiteSpace=wrap;rounded=0;shadow=0;glass=0;sketch=0;fontColor=#182E3E;" parent="_VwyDAd4XzTw5CxPkTpG-2" vertex="1">
          <mxGeometry x="7" y="22" width="106" height="16" as="geometry" />
        </mxCell>
        <mxCell id="_VwyDAd4XzTw5CxPkTpG-5" value="" style="group;fontColor=#182E3E;" parent="_VwyDAd4XzTw5CxPkTpG-0" vertex="1" connectable="0">
          <mxGeometry x="13.5" y="262" width="120" height="60" as="geometry" />
        </mxCell>
        <mxCell id="_VwyDAd4XzTw5CxPkTpG-6" value="" style="rounded=1;whiteSpace=wrap;html=1;shadow=0;glass=0;sketch=0;fillColor=#B1DDF0;strokeColor=#BAC8D3;fontColor=#182E3E;" parent="_VwyDAd4XzTw5CxPkTpG-5" vertex="1">
          <mxGeometry width="120" height="60" as="geometry" />
        </mxCell>
        <mxCell id="_VwyDAd4XzTw5CxPkTpG-7" value="&lt;font color=&quot;#000000&quot; face=&quot;Verdana&quot;&gt;active (network)&lt;br&gt;&lt;/font&gt;" style="text;html=1;strokeColor=none;fillColor=none;align=center;verticalAlign=middle;whiteSpace=wrap;rounded=0;shadow=0;glass=0;sketch=0;fontColor=#182E3E;" parent="_VwyDAd4XzTw5CxPkTpG-5" vertex="1">
          <mxGeometry x="7" y="22" width="106" height="16" as="geometry" />
        </mxCell>
        <mxCell id="_VwyDAd4XzTw5CxPkTpG-8" value="" style="group;fontColor=#182E3E;" parent="_VwyDAd4XzTw5CxPkTpG-0" vertex="1" connectable="0">
          <mxGeometry x="13.5" y="118" width="120" height="60" as="geometry" />
        </mxCell>
        <mxCell id="_VwyDAd4XzTw5CxPkTpG-9" value="" style="rounded=1;whiteSpace=wrap;html=1;shadow=0;glass=0;sketch=0;fillColor=#B1DDF0;strokeColor=#BAC8D3;fontColor=#182E3E;" parent="_VwyDAd4XzTw5CxPkTpG-8" vertex="1">
          <mxGeometry width="120" height="60" as="geometry" />
        </mxCell>
        <mxCell id="_VwyDAd4XzTw5CxPkTpG-10" value="&lt;font color=&quot;#000000&quot; face=&quot;Verdana&quot;&gt;customNetworks&lt;/font&gt;" style="text;html=1;strokeColor=none;fillColor=none;align=center;verticalAlign=middle;whiteSpace=wrap;rounded=0;shadow=0;glass=0;sketch=0;fontColor=#182E3E;" parent="_VwyDAd4XzTw5CxPkTpG-8" vertex="1">
          <mxGeometry x="7" y="22" width="106" height="16" as="geometry" />
        </mxCell>
        <UserObject label="" id="_VwyDAd4XzTw5CxPkTpG-11">
          <mxCell style="group;fontColor=#182E3E;" parent="_VwyDAd4XzTw5CxPkTpG-0" vertex="1" connectable="0">
            <mxGeometry x="13.5" y="45" width="120" height="60" as="geometry" />
          </mxCell>
        </UserObject>
        <mxCell id="_VwyDAd4XzTw5CxPkTpG-12" value="" style="rounded=1;whiteSpace=wrap;html=1;shadow=0;glass=0;sketch=0;fillColor=#B1DDF0;strokeColor=#BAC8D3;fontColor=#182E3E;" parent="_VwyDAd4XzTw5CxPkTpG-11" vertex="1">
          <mxGeometry width="120" height="60" as="geometry" />
        </mxCell>
        <mxCell id="_VwyDAd4XzTw5CxPkTpG-13" value="&lt;font color=&quot;#000000&quot; face=&quot;Verdana&quot;&gt;networks&lt;br&gt;&lt;/font&gt;" style="text;html=1;strokeColor=none;fillColor=none;align=center;verticalAlign=middle;whiteSpace=wrap;rounded=0;shadow=0;glass=0;sketch=0;fontColor=#182E3E;" parent="_VwyDAd4XzTw5CxPkTpG-11" vertex="1">
          <mxGeometry x="7" y="22" width="106" height="16" as="geometry" />
        </mxCell>
      </root>
    </mxGraphModel>
  </diagram>
  <diagram id="0B3EtZR8Afy1uR5oDBIO" name="Swap">
    <mxGraphModel dx="1408" dy="772" grid="0" gridSize="10" guides="1" tooltips="1" connect="1" arrows="1" fold="1" page="0" pageScale="1" pageWidth="850" pageHeight="1100" background="#021640" math="0" shadow="0">
      <root>
        <mxCell id="0" />
        <mxCell id="1" parent="0" />
        <mxCell id="d4LDDaHU8f0VGXpHicWY-1" value="swap-sdk" style="swimlane;rounded=1;fillColor=#f0a30a;strokeColor=#BD7000;fontColor=#000000;fontFamily=Verdana;" vertex="1" parent="1">
          <mxGeometry x="-139" y="138" width="1356" height="1625" as="geometry">
            <mxRectangle x="362" y="106" width="89" height="23" as="alternateBounds" />
          </mxGeometry>
        </mxCell>
        <mxCell id="d4LDDaHU8f0VGXpHicWY-2" style="edgeStyle=orthogonalEdgeStyle;orthogonalLoop=1;jettySize=auto;html=1;entryX=0;entryY=0.5;entryDx=0;entryDy=0;rounded=0;curved=1;exitX=0;exitY=0.5;exitDx=0;exitDy=0;dashed=1;labelBackgroundColor=#09555B;strokeColor=#EEEEEE;fontColor=#FFFFFF;" edge="1" parent="d4LDDaHU8f0VGXpHicWY-1">
          <mxGeometry relative="1" as="geometry">
            <mxPoint x="25" y="110.99999999999989" as="sourcePoint" />
          </mxGeometry>
        </mxCell>
        <mxCell id="d4LDDaHU8f0VGXpHicWY-3" value="" style="group;perimeterSpacing=4;strokeWidth=7;" vertex="1" connectable="0" parent="d4LDDaHU8f0VGXpHicWY-1">
          <mxGeometry x="760" y="149" width="120" height="60" as="geometry" />
        </mxCell>
        <mxCell id="d4LDDaHU8f0VGXpHicWY-4" value="" style="rounded=1;whiteSpace=wrap;html=1;shadow=0;glass=0;sketch=0;fillColor=#B1DDF0;strokeColor=#BAC8D3;fontColor=#182E3E;" vertex="1" parent="d4LDDaHU8f0VGXpHicWY-3">
          <mxGeometry width="120" height="60" as="geometry" />
        </mxCell>
        <mxCell id="d4LDDaHU8f0VGXpHicWY-5" value="&lt;font color=&quot;#000000&quot; face=&quot;Verdana&quot;&gt;start: performSwap&lt;/font&gt;" style="text;html=1;strokeColor=none;fillColor=none;align=center;verticalAlign=middle;whiteSpace=wrap;rounded=0;shadow=0;glass=0;sketch=0;fontColor=#182E3E;" vertex="1" parent="d4LDDaHU8f0VGXpHicWY-3">
          <mxGeometry x="7" y="22" width="106" height="16" as="geometry" />
        </mxCell>
        <mxCell id="d4LDDaHU8f0VGXpHicWY-35" style="orthogonalLoop=1;jettySize=auto;html=1;strokeColor=#FFFFFF;edgeStyle=entityRelationEdgeStyle;rounded=1;strokeWidth=2;" edge="1" parent="d4LDDaHU8f0VGXpHicWY-1" source="d4LDDaHU8f0VGXpHicWY-9" target="d4LDDaHU8f0VGXpHicWY-31">
          <mxGeometry relative="1" as="geometry" />
        </mxCell>
        <mxCell id="d4LDDaHU8f0VGXpHicWY-36" style="edgeStyle=entityRelationEdgeStyle;rounded=1;orthogonalLoop=1;jettySize=auto;html=1;strokeColor=#FFFFFF;strokeWidth=2;" edge="1" parent="d4LDDaHU8f0VGXpHicWY-1" source="d4LDDaHU8f0VGXpHicWY-16" target="d4LDDaHU8f0VGXpHicWY-31">
          <mxGeometry relative="1" as="geometry" />
        </mxCell>
        <mxCell id="d4LDDaHU8f0VGXpHicWY-37" style="edgeStyle=entityRelationEdgeStyle;rounded=1;orthogonalLoop=1;jettySize=auto;html=1;strokeColor=#FFFFFF;strokeWidth=2;" edge="1" parent="d4LDDaHU8f0VGXpHicWY-1" source="d4LDDaHU8f0VGXpHicWY-17" target="d4LDDaHU8f0VGXpHicWY-31">
          <mxGeometry relative="1" as="geometry" />
        </mxCell>
        <mxCell id="d4LDDaHU8f0VGXpHicWY-38" style="edgeStyle=entityRelationEdgeStyle;rounded=1;orthogonalLoop=1;jettySize=auto;html=1;strokeColor=#FFFFFF;strokeWidth=2;" edge="1" parent="d4LDDaHU8f0VGXpHicWY-1" source="d4LDDaHU8f0VGXpHicWY-18" target="d4LDDaHU8f0VGXpHicWY-31">
          <mxGeometry relative="1" as="geometry" />
        </mxCell>
        <mxCell id="d4LDDaHU8f0VGXpHicWY-39" style="edgeStyle=entityRelationEdgeStyle;rounded=1;orthogonalLoop=1;jettySize=auto;html=1;strokeColor=#FFFFFF;strokeWidth=2;" edge="1" parent="d4LDDaHU8f0VGXpHicWY-1" source="d4LDDaHU8f0VGXpHicWY-19" target="d4LDDaHU8f0VGXpHicWY-31">
          <mxGeometry relative="1" as="geometry" />
        </mxCell>
        <mxCell id="d4LDDaHU8f0VGXpHicWY-40" style="edgeStyle=entityRelationEdgeStyle;rounded=1;orthogonalLoop=1;jettySize=auto;html=1;strokeColor=#FFFFFF;strokeWidth=2;" edge="1" parent="d4LDDaHU8f0VGXpHicWY-1" source="d4LDDaHU8f0VGXpHicWY-20" target="d4LDDaHU8f0VGXpHicWY-31">
          <mxGeometry relative="1" as="geometry" />
        </mxCell>
        <mxCell id="d4LDDaHU8f0VGXpHicWY-42" style="edgeStyle=entityRelationEdgeStyle;rounded=1;orthogonalLoop=1;jettySize=auto;html=1;strokeColor=#FFFFFF;strokeWidth=2;" edge="1" parent="d4LDDaHU8f0VGXpHicWY-1" source="d4LDDaHU8f0VGXpHicWY-23" target="d4LDDaHU8f0VGXpHicWY-31">
          <mxGeometry relative="1" as="geometry" />
        </mxCell>
        <mxCell id="d4LDDaHU8f0VGXpHicWY-74" value="input params" style="swimlane;rounded=1;fontFamily=Verdana;fillColor=#008a00;strokeColor=#005700;arcSize=18;fontColor=#ffffff;" vertex="1" parent="d4LDDaHU8f0VGXpHicWY-1">
          <mxGeometry x="308" y="101" width="198" height="703" as="geometry">
            <mxRectangle x="362" y="106" width="89" height="23" as="alternateBounds" />
          </mxGeometry>
        </mxCell>
        <mxCell id="d4LDDaHU8f0VGXpHicWY-75" style="edgeStyle=orthogonalEdgeStyle;orthogonalLoop=1;jettySize=auto;html=1;entryX=0;entryY=0.5;entryDx=0;entryDy=0;rounded=0;curved=1;exitX=0;exitY=0.5;exitDx=0;exitDy=0;dashed=1;labelBackgroundColor=#09555B;strokeColor=#EEEEEE;fontColor=#FFFFFF;" edge="1" parent="d4LDDaHU8f0VGXpHicWY-74">
          <mxGeometry relative="1" as="geometry">
            <mxPoint x="25" y="110.99999999999989" as="sourcePoint" />
          </mxGeometry>
        </mxCell>
        <mxCell id="d4LDDaHU8f0VGXpHicWY-9" value="srcToken" style="rounded=0;whiteSpace=wrap;html=1;shadow=0;glass=0;sketch=0;fillColor=#B1DDF0;strokeColor=#BAC8D3;fontColor=#182E3E;" vertex="1" parent="d4LDDaHU8f0VGXpHicWY-74">
          <mxGeometry x="41" y="39" width="120" height="24" as="geometry" />
        </mxCell>
        <mxCell id="d4LDDaHU8f0VGXpHicWY-16" value="destToken" style="rounded=0;whiteSpace=wrap;html=1;shadow=0;glass=0;sketch=0;fillColor=#B1DDF0;strokeColor=#BAC8D3;fontColor=#182E3E;" vertex="1" parent="d4LDDaHU8f0VGXpHicWY-74">
          <mxGeometry x="41" y="81" width="120" height="24" as="geometry" />
        </mxCell>
        <mxCell id="d4LDDaHU8f0VGXpHicWY-17" value="srcDecimals" style="rounded=0;whiteSpace=wrap;html=1;shadow=0;glass=0;sketch=0;fillColor=#B1DDF0;strokeColor=#BAC8D3;fontColor=#182E3E;" vertex="1" parent="d4LDDaHU8f0VGXpHicWY-74">
          <mxGeometry x="41" y="123" width="120" height="24" as="geometry" />
        </mxCell>
        <mxCell id="d4LDDaHU8f0VGXpHicWY-18" value="destDecimals" style="rounded=0;whiteSpace=wrap;html=1;shadow=0;glass=0;sketch=0;fillColor=#B1DDF0;strokeColor=#BAC8D3;fontColor=#182E3E;" vertex="1" parent="d4LDDaHU8f0VGXpHicWY-74">
          <mxGeometry x="41" y="165" width="120" height="24" as="geometry" />
        </mxCell>
        <mxCell id="d4LDDaHU8f0VGXpHicWY-19" value="priceRoute" style="rounded=0;whiteSpace=wrap;html=1;shadow=0;glass=0;sketch=0;fillColor=#B1DDF0;strokeColor=#BAC8D3;fontColor=#182E3E;" vertex="1" parent="d4LDDaHU8f0VGXpHicWY-74">
          <mxGeometry x="41" y="207" width="120" height="24" as="geometry" />
        </mxCell>
        <mxCell id="d4LDDaHU8f0VGXpHicWY-20" value="gasLimit" style="rounded=0;whiteSpace=wrap;html=1;shadow=0;glass=0;sketch=0;fillColor=#B1DDF0;strokeColor=#BAC8D3;fontColor=#182E3E;" vertex="1" parent="d4LDDaHU8f0VGXpHicWY-74">
          <mxGeometry x="41" y="249" width="120" height="24" as="geometry" />
        </mxCell>
        <mxCell id="d4LDDaHU8f0VGXpHicWY-21" value="gasPrice" style="rounded=0;whiteSpace=wrap;html=1;shadow=0;glass=0;sketch=0;fillColor=#B1DDF0;strokeColor=#BAC8D3;fontColor=#182E3E;" vertex="1" parent="d4LDDaHU8f0VGXpHicWY-74">
          <mxGeometry x="41" y="291" width="120" height="24" as="geometry" />
        </mxCell>
        <mxCell id="d4LDDaHU8f0VGXpHicWY-22" value="slippage" style="rounded=0;whiteSpace=wrap;html=1;shadow=0;glass=0;sketch=0;fillColor=#B1DDF0;strokeColor=#BAC8D3;fontColor=#182E3E;" vertex="1" parent="d4LDDaHU8f0VGXpHicWY-74">
          <mxGeometry x="41" y="333" width="120" height="24" as="geometry" />
        </mxCell>
        <mxCell id="d4LDDaHU8f0VGXpHicWY-23" value="activeNetwork" style="rounded=0;whiteSpace=wrap;html=1;shadow=0;glass=0;sketch=0;fillColor=#B1DDF0;strokeColor=#BAC8D3;fontColor=#182E3E;" vertex="1" parent="d4LDDaHU8f0VGXpHicWY-74">
          <mxGeometry x="41" y="374" width="120" height="24" as="geometry" />
        </mxCell>
        <mxCell id="d4LDDaHU8f0VGXpHicWY-24" value="trxBuilder" style="rounded=0;whiteSpace=wrap;html=1;shadow=0;glass=0;sketch=0;fillColor=#fff2cc;strokeColor=#d6b656;" vertex="1" parent="d4LDDaHU8f0VGXpHicWY-74">
          <mxGeometry x="41" y="416" width="120" height="24" as="geometry" />
        </mxCell>
        <mxCell id="d4LDDaHU8f0VGXpHicWY-25" value="provider" style="rounded=0;whiteSpace=wrap;html=1;shadow=0;glass=0;sketch=0;fillColor=#fff2cc;strokeColor=#d6b656;" vertex="1" parent="d4LDDaHU8f0VGXpHicWY-74">
          <mxGeometry x="41" y="458" width="120" height="24" as="geometry" />
        </mxCell>
        <mxCell id="d4LDDaHU8f0VGXpHicWY-26" value="trxSender" style="rounded=0;whiteSpace=wrap;html=1;shadow=0;glass=0;sketch=0;fillColor=#fff2cc;strokeColor=#d6b656;" vertex="1" parent="d4LDDaHU8f0VGXpHicWY-74">
          <mxGeometry x="41" y="500" width="120" height="24" as="geometry" />
        </mxCell>
        <mxCell id="d4LDDaHU8f0VGXpHicWY-27" value="trxSigner" style="rounded=0;whiteSpace=wrap;html=1;shadow=0;glass=0;sketch=0;fillColor=#fff2cc;strokeColor=#d6b656;" vertex="1" parent="d4LDDaHU8f0VGXpHicWY-74">
          <mxGeometry x="41" y="542" width="120" height="24" as="geometry" />
        </mxCell>
        <mxCell id="d4LDDaHU8f0VGXpHicWY-28" value="userAddress" style="rounded=0;whiteSpace=wrap;html=1;shadow=0;glass=0;sketch=0;fillColor=#B1DDF0;strokeColor=#BAC8D3;fontColor=#182E3E;" vertex="1" parent="d4LDDaHU8f0VGXpHicWY-74">
          <mxGeometry x="41" y="584" width="120" height="24" as="geometry" />
        </mxCell>
        <mxCell id="d4LDDaHU8f0VGXpHicWY-29" value="networkGasPrice" style="rounded=0;whiteSpace=wrap;html=1;shadow=0;glass=0;sketch=0;fillColor=#B1DDF0;strokeColor=#BAC8D3;fontColor=#182E3E;" vertex="1" parent="d4LDDaHU8f0VGXpHicWY-74">
          <mxGeometry x="41" y="626" width="120" height="24" as="geometry" />
        </mxCell>
        <mxCell id="d4LDDaHU8f0VGXpHicWY-167" value="spender" style="rounded=0;whiteSpace=wrap;html=1;shadow=0;glass=0;sketch=0;fillColor=#B1DDF0;strokeColor=#BAC8D3;fontColor=#182E3E;" vertex="1" parent="d4LDDaHU8f0VGXpHicWY-74">
          <mxGeometry x="41" y="668" width="120" height="24" as="geometry" />
        </mxCell>
        <mxCell id="d4LDDaHU8f0VGXpHicWY-113" style="edgeStyle=entityRelationEdgeStyle;rounded=1;orthogonalLoop=1;jettySize=auto;html=1;strokeColor=#FFFFFF;strokeWidth=2;" edge="1" parent="d4LDDaHU8f0VGXpHicWY-1" source="d4LDDaHU8f0VGXpHicWY-104" target="d4LDDaHU8f0VGXpHicWY-108">
          <mxGeometry relative="1" as="geometry" />
        </mxCell>
        <mxCell id="d4LDDaHU8f0VGXpHicWY-104" value="ETHER_ADDRESS" style="rounded=1;whiteSpace=wrap;html=1;shadow=0;glass=0;sketch=0;fillColor=#B1DDF0;strokeColor=#BAC8D3;fontColor=#182E3E;" vertex="1" parent="d4LDDaHU8f0VGXpHicWY-1">
          <mxGeometry x="1034" y="237" width="120" height="24" as="geometry" />
        </mxCell>
        <mxCell id="d4LDDaHU8f0VGXpHicWY-30" value="" style="group;perimeterSpacing=4;strokeWidth=7;" vertex="1" connectable="0" parent="d4LDDaHU8f0VGXpHicWY-1">
          <mxGeometry x="760" y="253" width="120" height="60" as="geometry" />
        </mxCell>
        <mxCell id="d4LDDaHU8f0VGXpHicWY-31" value="" style="rounded=1;whiteSpace=wrap;html=1;shadow=0;glass=0;sketch=0;fillColor=#B1DDF0;strokeColor=#BAC8D3;fontColor=#182E3E;" vertex="1" parent="d4LDDaHU8f0VGXpHicWY-30">
          <mxGeometry width="120" height="60" as="geometry" />
        </mxCell>
        <mxCell id="d4LDDaHU8f0VGXpHicWY-32" value="&lt;font color=&quot;#000000&quot; face=&quot;Verdana&quot;&gt;check inputs&lt;/font&gt;" style="text;html=1;strokeColor=none;fillColor=none;align=center;verticalAlign=middle;whiteSpace=wrap;rounded=0;shadow=0;glass=0;sketch=0;fontColor=#182E3E;" vertex="1" parent="d4LDDaHU8f0VGXpHicWY-30">
          <mxGeometry x="7" y="22" width="106" height="16" as="geometry" />
        </mxCell>
        <mxCell id="d4LDDaHU8f0VGXpHicWY-111" style="edgeStyle=none;rounded=1;orthogonalLoop=1;jettySize=auto;html=1;strokeColor=#FFFFFF;" edge="1" parent="d4LDDaHU8f0VGXpHicWY-1" source="d4LDDaHU8f0VGXpHicWY-4" target="d4LDDaHU8f0VGXpHicWY-31">
          <mxGeometry relative="1" as="geometry" />
        </mxCell>
        <mxCell id="d4LDDaHU8f0VGXpHicWY-140" style="edgeStyle=elbowEdgeStyle;rounded=1;orthogonalLoop=1;jettySize=auto;html=1;strokeColor=#82b366;fillColor=#d5e8d4;strokeWidth=2;" edge="1" parent="d4LDDaHU8f0VGXpHicWY-1" source="d4LDDaHU8f0VGXpHicWY-108" target="d4LDDaHU8f0VGXpHicWY-127">
          <mxGeometry relative="1" as="geometry">
            <Array as="points">
              <mxPoint x="950" y="591" />
            </Array>
          </mxGeometry>
        </mxCell>
        <mxCell id="d4LDDaHU8f0VGXpHicWY-150" style="rounded=1;orthogonalLoop=1;jettySize=auto;html=1;strokeColor=#FFFFFF;" edge="1" parent="d4LDDaHU8f0VGXpHicWY-1" source="d4LDDaHU8f0VGXpHicWY-108" target="d4LDDaHU8f0VGXpHicWY-120">
          <mxGeometry relative="1" as="geometry" />
        </mxCell>
        <mxCell id="d4LDDaHU8f0VGXpHicWY-164" style="edgeStyle=entityRelationEdgeStyle;rounded=1;orthogonalLoop=1;jettySize=auto;html=1;strokeColor=#A50040;strokeWidth=2;fillColor=#d80073;" edge="1" parent="d4LDDaHU8f0VGXpHicWY-1" source="d4LDDaHU8f0VGXpHicWY-108" target="d4LDDaHU8f0VGXpHicWY-158">
          <mxGeometry relative="1" as="geometry" />
        </mxCell>
        <mxCell id="d4LDDaHU8f0VGXpHicWY-108" value="define srcTokenAddress &amp;amp; destTokenAddress" style="whiteSpace=wrap;html=1;fillColor=#B1DDF0;strokeColor=#BAC8D3;fontColor=#182E3E;rounded=1;shadow=0;glass=0;sketch=0;" vertex="1" parent="d4LDDaHU8f0VGXpHicWY-1">
          <mxGeometry x="760" y="359" width="120" height="60" as="geometry" />
        </mxCell>
        <mxCell id="d4LDDaHU8f0VGXpHicWY-109" value="" style="rounded=1;orthogonalLoop=1;jettySize=auto;html=1;strokeColor=#FFFFFF;" edge="1" parent="d4LDDaHU8f0VGXpHicWY-1" source="d4LDDaHU8f0VGXpHicWY-31" target="d4LDDaHU8f0VGXpHicWY-108">
          <mxGeometry relative="1" as="geometry" />
        </mxCell>
        <mxCell id="d4LDDaHU8f0VGXpHicWY-112" style="edgeStyle=entityRelationEdgeStyle;rounded=1;orthogonalLoop=1;jettySize=auto;html=1;strokeColor=#d6b656;fillColor=#fff2cc;strokeWidth=2;" edge="1" parent="d4LDDaHU8f0VGXpHicWY-1" source="d4LDDaHU8f0VGXpHicWY-23" target="d4LDDaHU8f0VGXpHicWY-108">
          <mxGeometry relative="1" as="geometry" />
        </mxCell>
        <mxCell id="d4LDDaHU8f0VGXpHicWY-116" style="edgeStyle=entityRelationEdgeStyle;rounded=1;orthogonalLoop=1;jettySize=auto;html=1;strokeColor=#d6b656;fillColor=#fff2cc;strokeWidth=2;" edge="1" parent="d4LDDaHU8f0VGXpHicWY-1" source="d4LDDaHU8f0VGXpHicWY-9" target="d4LDDaHU8f0VGXpHicWY-108">
          <mxGeometry relative="1" as="geometry" />
        </mxCell>
        <mxCell id="d4LDDaHU8f0VGXpHicWY-117" style="edgeStyle=entityRelationEdgeStyle;rounded=1;orthogonalLoop=1;jettySize=auto;html=1;strokeColor=#d6b656;fillColor=#fff2cc;strokeWidth=2;" edge="1" parent="d4LDDaHU8f0VGXpHicWY-1" source="d4LDDaHU8f0VGXpHicWY-16" target="d4LDDaHU8f0VGXpHicWY-108">
          <mxGeometry relative="1" as="geometry" />
        </mxCell>
        <mxCell id="d4LDDaHU8f0VGXpHicWY-118" style="edgeStyle=entityRelationEdgeStyle;rounded=1;orthogonalLoop=1;jettySize=auto;html=1;strokeColor=#FFFFFF;strokeWidth=2;" edge="1" parent="d4LDDaHU8f0VGXpHicWY-1" source="d4LDDaHU8f0VGXpHicWY-28" target="d4LDDaHU8f0VGXpHicWY-31">
          <mxGeometry relative="1" as="geometry" />
        </mxCell>
        <mxCell id="d4LDDaHU8f0VGXpHicWY-130" style="rounded=1;orthogonalLoop=1;jettySize=auto;html=1;strokeColor=#FFFFFF;" edge="1" parent="d4LDDaHU8f0VGXpHicWY-1" source="d4LDDaHU8f0VGXpHicWY-120" target="d4LDDaHU8f0VGXpHicWY-124">
          <mxGeometry relative="1" as="geometry" />
        </mxCell>
        <mxCell id="d4LDDaHU8f0VGXpHicWY-141" style="edgeStyle=elbowEdgeStyle;rounded=1;orthogonalLoop=1;jettySize=auto;html=1;dashed=1;strokeColor=#82b366;fillColor=#d5e8d4;" edge="1" parent="d4LDDaHU8f0VGXpHicWY-1" source="d4LDDaHU8f0VGXpHicWY-120" target="d4LDDaHU8f0VGXpHicWY-127">
          <mxGeometry relative="1" as="geometry">
            <Array as="points">
              <mxPoint x="950" y="648" />
            </Array>
          </mxGeometry>
        </mxCell>
        <mxCell id="d4LDDaHU8f0VGXpHicWY-152" style="edgeStyle=elbowEdgeStyle;rounded=1;orthogonalLoop=1;jettySize=auto;html=1;strokeColor=#6c8ebf;fillColor=#dae8fc;strokeWidth=2;" edge="1" parent="d4LDDaHU8f0VGXpHicWY-1" source="d4LDDaHU8f0VGXpHicWY-120" target="d4LDDaHU8f0VGXpHicWY-128">
          <mxGeometry relative="1" as="geometry">
            <Array as="points">
              <mxPoint x="982" y="689" />
            </Array>
          </mxGeometry>
        </mxCell>
        <mxCell id="d4LDDaHU8f0VGXpHicWY-200" style="edgeStyle=entityRelationEdgeStyle;rounded=1;orthogonalLoop=1;jettySize=auto;html=1;strokeColor=#d6b656;strokeWidth=2;fillColor=#fff2cc;" edge="1" parent="d4LDDaHU8f0VGXpHicWY-1" source="d4LDDaHU8f0VGXpHicWY-120" target="d4LDDaHU8f0VGXpHicWY-194">
          <mxGeometry relative="1" as="geometry" />
        </mxCell>
        <mxCell id="d4LDDaHU8f0VGXpHicWY-202" style="edgeStyle=entityRelationEdgeStyle;rounded=1;orthogonalLoop=1;jettySize=auto;html=1;strokeColor=#005700;strokeWidth=2;fillColor=#008a00;" edge="1" parent="d4LDDaHU8f0VGXpHicWY-1" source="d4LDDaHU8f0VGXpHicWY-120" target="d4LDDaHU8f0VGXpHicWY-197">
          <mxGeometry relative="1" as="geometry" />
        </mxCell>
        <mxCell id="d4LDDaHU8f0VGXpHicWY-120" value="define srcAmount &amp;amp; destAmount" style="whiteSpace=wrap;html=1;fillColor=#B1DDF0;strokeColor=#BAC8D3;fontColor=#182E3E;rounded=1;shadow=0;glass=0;sketch=0;" vertex="1" parent="d4LDDaHU8f0VGXpHicWY-1">
          <mxGeometry x="760" y="459" width="120" height="60" as="geometry" />
        </mxCell>
        <mxCell id="d4LDDaHU8f0VGXpHicWY-122" style="edgeStyle=entityRelationEdgeStyle;rounded=1;orthogonalLoop=1;jettySize=auto;html=1;strokeColor=#9673a6;fillColor=#e1d5e7;strokeWidth=2;" edge="1" parent="d4LDDaHU8f0VGXpHicWY-1" source="d4LDDaHU8f0VGXpHicWY-19" target="d4LDDaHU8f0VGXpHicWY-120">
          <mxGeometry relative="1" as="geometry" />
        </mxCell>
        <mxCell id="d4LDDaHU8f0VGXpHicWY-123" style="edgeStyle=entityRelationEdgeStyle;rounded=1;orthogonalLoop=1;jettySize=auto;html=1;strokeColor=#9673a6;fillColor=#e1d5e7;strokeWidth=2;" edge="1" parent="d4LDDaHU8f0VGXpHicWY-1" source="d4LDDaHU8f0VGXpHicWY-22" target="d4LDDaHU8f0VGXpHicWY-120">
          <mxGeometry relative="1" as="geometry" />
        </mxCell>
        <mxCell id="d4LDDaHU8f0VGXpHicWY-131" style="edgeStyle=none;rounded=1;orthogonalLoop=1;jettySize=auto;html=1;strokeColor=#FFFFFF;" edge="1" parent="d4LDDaHU8f0VGXpHicWY-1" source="d4LDDaHU8f0VGXpHicWY-124" target="d4LDDaHU8f0VGXpHicWY-126">
          <mxGeometry relative="1" as="geometry" />
        </mxCell>
        <mxCell id="d4LDDaHU8f0VGXpHicWY-137" value="No" style="edgeLabel;html=1;align=center;verticalAlign=middle;resizable=0;points=[];" vertex="1" connectable="0" parent="d4LDDaHU8f0VGXpHicWY-131">
          <mxGeometry x="-0.1331" relative="1" as="geometry">
            <mxPoint as="offset" />
          </mxGeometry>
        </mxCell>
        <mxCell id="d4LDDaHU8f0VGXpHicWY-132" style="edgeStyle=entityRelationEdgeStyle;rounded=1;orthogonalLoop=1;jettySize=auto;html=1;strokeColor=#82b366;fillColor=#d5e8d4;strokeWidth=2;" edge="1" parent="d4LDDaHU8f0VGXpHicWY-1" source="d4LDDaHU8f0VGXpHicWY-124" target="d4LDDaHU8f0VGXpHicWY-127">
          <mxGeometry relative="1" as="geometry" />
        </mxCell>
        <mxCell id="d4LDDaHU8f0VGXpHicWY-136" value="Yes" style="edgeLabel;html=1;align=center;verticalAlign=middle;resizable=0;points=[];" vertex="1" connectable="0" parent="d4LDDaHU8f0VGXpHicWY-132">
          <mxGeometry x="0.0135" relative="1" as="geometry">
            <mxPoint as="offset" />
          </mxGeometry>
        </mxCell>
        <mxCell id="d4LDDaHU8f0VGXpHicWY-124" value="srcToken == nativeToken?" style="rhombus;whiteSpace=wrap;html=1;fillColor=#B1DDF0;strokeColor=#BAC8D3;fontColor=#182E3E;rounded=1;shadow=0;glass=0;sketch=0;" vertex="1" parent="d4LDDaHU8f0VGXpHicWY-1">
          <mxGeometry x="762" y="551" width="116" height="87" as="geometry" />
        </mxCell>
        <mxCell id="d4LDDaHU8f0VGXpHicWY-133" style="rounded=1;orthogonalLoop=1;jettySize=auto;html=1;strokeColor=#FFFFFF;" edge="1" parent="d4LDDaHU8f0VGXpHicWY-1" source="d4LDDaHU8f0VGXpHicWY-126" target="d4LDDaHU8f0VGXpHicWY-127">
          <mxGeometry relative="1" as="geometry" />
        </mxCell>
        <mxCell id="d4LDDaHU8f0VGXpHicWY-248" style="edgeStyle=entityRelationEdgeStyle;rounded=1;orthogonalLoop=1;jettySize=auto;html=1;entryX=1.001;entryY=0.023;entryDx=0;entryDy=0;entryPerimeter=0;strokeColor=#FFFFFF;strokeWidth=2;fontColor=#FFFFFF;dashed=1;" edge="1" parent="d4LDDaHU8f0VGXpHicWY-1" source="d4LDDaHU8f0VGXpHicWY-126" target="d4LDDaHU8f0VGXpHicWY-155">
          <mxGeometry relative="1" as="geometry" />
        </mxCell>
        <mxCell id="d4LDDaHU8f0VGXpHicWY-126" value="make allowance" style="whiteSpace=wrap;html=1;fillColor=#B1DDF0;strokeColor=#BAC8D3;fontColor=#182E3E;rounded=1;shadow=0;glass=0;sketch=0;" vertex="1" parent="d4LDDaHU8f0VGXpHicWY-1">
          <mxGeometry x="760" y="670" width="120" height="60" as="geometry" />
        </mxCell>
        <mxCell id="d4LDDaHU8f0VGXpHicWY-134" style="edgeStyle=none;rounded=1;orthogonalLoop=1;jettySize=auto;html=1;strokeColor=#FFFFFF;" edge="1" parent="d4LDDaHU8f0VGXpHicWY-1" source="d4LDDaHU8f0VGXpHicWY-127" target="d4LDDaHU8f0VGXpHicWY-128">
          <mxGeometry relative="1" as="geometry" />
        </mxCell>
        <mxCell id="d4LDDaHU8f0VGXpHicWY-127" value="build Trx" style="whiteSpace=wrap;html=1;fillColor=#B1DDF0;strokeColor=#BAC8D3;fontColor=#182E3E;rounded=1;shadow=0;glass=0;sketch=0;" vertex="1" parent="d4LDDaHU8f0VGXpHicWY-1">
          <mxGeometry x="760" y="762" width="120" height="60" as="geometry" />
        </mxCell>
        <mxCell id="d4LDDaHU8f0VGXpHicWY-135" style="edgeStyle=none;rounded=1;orthogonalLoop=1;jettySize=auto;html=1;strokeColor=#FFFFFF;" edge="1" parent="d4LDDaHU8f0VGXpHicWY-1" source="d4LDDaHU8f0VGXpHicWY-128" target="d4LDDaHU8f0VGXpHicWY-129">
          <mxGeometry relative="1" as="geometry" />
        </mxCell>
        <mxCell id="d4LDDaHU8f0VGXpHicWY-128" value="sign Trx" style="whiteSpace=wrap;html=1;fillColor=#B1DDF0;strokeColor=#BAC8D3;fontColor=#182E3E;rounded=1;shadow=0;glass=0;sketch=0;" vertex="1" parent="d4LDDaHU8f0VGXpHicWY-1">
          <mxGeometry x="760" y="854" width="120" height="60" as="geometry" />
        </mxCell>
        <mxCell id="d4LDDaHU8f0VGXpHicWY-191" style="edgeStyle=elbowEdgeStyle;rounded=1;orthogonalLoop=1;jettySize=auto;html=1;strokeColor=#FFFFFF;strokeWidth=2;" edge="1" parent="d4LDDaHU8f0VGXpHicWY-1" source="d4LDDaHU8f0VGXpHicWY-129" target="d4LDDaHU8f0VGXpHicWY-171">
          <mxGeometry relative="1" as="geometry">
            <Array as="points">
              <mxPoint x="959" y="1063" />
            </Array>
          </mxGeometry>
        </mxCell>
        <mxCell id="d4LDDaHU8f0VGXpHicWY-129" value="send Trx" style="whiteSpace=wrap;html=1;fillColor=#B1DDF0;strokeColor=#BAC8D3;fontColor=#182E3E;rounded=1;shadow=0;glass=0;sketch=0;" vertex="1" parent="d4LDDaHU8f0VGXpHicWY-1">
          <mxGeometry x="760" y="946" width="120" height="60" as="geometry" />
        </mxCell>
        <mxCell id="d4LDDaHU8f0VGXpHicWY-139" style="edgeStyle=entityRelationEdgeStyle;rounded=1;orthogonalLoop=1;jettySize=auto;html=1;strokeColor=#82b366;fillColor=#d5e8d4;strokeWidth=2;" edge="1" parent="d4LDDaHU8f0VGXpHicWY-1" source="d4LDDaHU8f0VGXpHicWY-138" target="d4LDDaHU8f0VGXpHicWY-127">
          <mxGeometry relative="1" as="geometry" />
        </mxCell>
        <mxCell id="d4LDDaHU8f0VGXpHicWY-147" style="edgeStyle=entityRelationEdgeStyle;rounded=1;orthogonalLoop=1;jettySize=auto;html=1;strokeColor=#6c8ebf;fillColor=#dae8fc;strokeWidth=2;" edge="1" parent="d4LDDaHU8f0VGXpHicWY-1" source="d4LDDaHU8f0VGXpHicWY-138" target="d4LDDaHU8f0VGXpHicWY-128">
          <mxGeometry relative="1" as="geometry" />
        </mxCell>
        <mxCell id="d4LDDaHU8f0VGXpHicWY-208" style="edgeStyle=elbowEdgeStyle;rounded=1;orthogonalLoop=1;jettySize=auto;html=1;strokeColor=#C73500;strokeWidth=2;fillColor=#fa6800;" edge="1" parent="d4LDDaHU8f0VGXpHicWY-1" source="d4LDDaHU8f0VGXpHicWY-138" target="d4LDDaHU8f0VGXpHicWY-203">
          <mxGeometry relative="1" as="geometry">
            <Array as="points">
              <mxPoint x="1077" y="1084" />
            </Array>
          </mxGeometry>
        </mxCell>
        <mxCell id="d4LDDaHU8f0VGXpHicWY-138" value="AVALANCHE_MAINNET_ID" style="rounded=1;whiteSpace=wrap;html=1;shadow=0;glass=0;sketch=0;fillColor=#B1DDF0;strokeColor=#BAC8D3;fontColor=#182E3E;" vertex="1" parent="d4LDDaHU8f0VGXpHicWY-1">
          <mxGeometry x="1005" y="828" width="178" height="24" as="geometry" />
        </mxCell>
        <mxCell id="d4LDDaHU8f0VGXpHicWY-142" style="edgeStyle=entityRelationEdgeStyle;rounded=1;orthogonalLoop=1;jettySize=auto;html=1;strokeColor=#82b366;fillColor=#d5e8d4;strokeWidth=2;" edge="1" parent="d4LDDaHU8f0VGXpHicWY-1" source="d4LDDaHU8f0VGXpHicWY-19" target="d4LDDaHU8f0VGXpHicWY-127">
          <mxGeometry relative="1" as="geometry" />
        </mxCell>
        <mxCell id="d4LDDaHU8f0VGXpHicWY-143" style="edgeStyle=entityRelationEdgeStyle;rounded=1;orthogonalLoop=1;jettySize=auto;html=1;strokeColor=#82b366;fillColor=#d5e8d4;strokeWidth=2;" edge="1" parent="d4LDDaHU8f0VGXpHicWY-1" source="d4LDDaHU8f0VGXpHicWY-28" target="d4LDDaHU8f0VGXpHicWY-127">
          <mxGeometry relative="1" as="geometry" />
        </mxCell>
        <mxCell id="d4LDDaHU8f0VGXpHicWY-144" style="edgeStyle=entityRelationEdgeStyle;rounded=1;orthogonalLoop=1;jettySize=auto;html=1;strokeColor=#82b366;fillColor=#d5e8d4;strokeWidth=2;" edge="1" parent="d4LDDaHU8f0VGXpHicWY-1" source="d4LDDaHU8f0VGXpHicWY-17" target="d4LDDaHU8f0VGXpHicWY-127">
          <mxGeometry relative="1" as="geometry" />
        </mxCell>
        <mxCell id="d4LDDaHU8f0VGXpHicWY-145" style="edgeStyle=entityRelationEdgeStyle;rounded=1;orthogonalLoop=1;jettySize=auto;html=1;strokeColor=#82b366;fillColor=#d5e8d4;strokeWidth=2;" edge="1" parent="d4LDDaHU8f0VGXpHicWY-1" source="d4LDDaHU8f0VGXpHicWY-18" target="d4LDDaHU8f0VGXpHicWY-127">
          <mxGeometry relative="1" as="geometry" />
        </mxCell>
        <mxCell id="d4LDDaHU8f0VGXpHicWY-146" style="edgeStyle=entityRelationEdgeStyle;rounded=1;orthogonalLoop=1;jettySize=auto;html=1;strokeColor=#6c8ebf;fillColor=#dae8fc;strokeWidth=2;" edge="1" parent="d4LDDaHU8f0VGXpHicWY-1" source="d4LDDaHU8f0VGXpHicWY-25" target="d4LDDaHU8f0VGXpHicWY-128">
          <mxGeometry relative="1" as="geometry" />
        </mxCell>
        <mxCell id="d4LDDaHU8f0VGXpHicWY-148" style="edgeStyle=entityRelationEdgeStyle;rounded=1;orthogonalLoop=1;jettySize=auto;html=1;strokeColor=#6c8ebf;fillColor=#dae8fc;strokeWidth=2;" edge="1" parent="d4LDDaHU8f0VGXpHicWY-1" source="d4LDDaHU8f0VGXpHicWY-21" target="d4LDDaHU8f0VGXpHicWY-128">
          <mxGeometry relative="1" as="geometry" />
        </mxCell>
        <mxCell id="d4LDDaHU8f0VGXpHicWY-149" style="edgeStyle=entityRelationEdgeStyle;rounded=1;orthogonalLoop=1;jettySize=auto;html=1;strokeColor=#6c8ebf;fillColor=#dae8fc;strokeWidth=2;" edge="1" parent="d4LDDaHU8f0VGXpHicWY-1" source="d4LDDaHU8f0VGXpHicWY-29" target="d4LDDaHU8f0VGXpHicWY-128">
          <mxGeometry relative="1" as="geometry" />
        </mxCell>
        <mxCell id="d4LDDaHU8f0VGXpHicWY-151" style="edgeStyle=entityRelationEdgeStyle;rounded=1;orthogonalLoop=1;jettySize=auto;html=1;strokeColor=#6c8ebf;fillColor=#dae8fc;strokeWidth=2;" edge="1" parent="d4LDDaHU8f0VGXpHicWY-1" source="d4LDDaHU8f0VGXpHicWY-23" target="d4LDDaHU8f0VGXpHicWY-128">
          <mxGeometry relative="1" as="geometry" />
        </mxCell>
        <mxCell id="d4LDDaHU8f0VGXpHicWY-153" style="edgeStyle=entityRelationEdgeStyle;rounded=1;orthogonalLoop=1;jettySize=auto;html=1;strokeColor=#6c8ebf;strokeWidth=2;fillColor=#dae8fc;" edge="1" parent="d4LDDaHU8f0VGXpHicWY-1" source="d4LDDaHU8f0VGXpHicWY-27" target="d4LDDaHU8f0VGXpHicWY-128">
          <mxGeometry relative="1" as="geometry" />
        </mxCell>
        <mxCell id="d4LDDaHU8f0VGXpHicWY-154" style="edgeStyle=entityRelationEdgeStyle;rounded=1;orthogonalLoop=1;jettySize=auto;html=1;strokeColor=#FFFFFF;strokeWidth=2;" edge="1" parent="d4LDDaHU8f0VGXpHicWY-1" source="d4LDDaHU8f0VGXpHicWY-26" target="d4LDDaHU8f0VGXpHicWY-129">
          <mxGeometry relative="1" as="geometry" />
        </mxCell>
        <mxCell id="d4LDDaHU8f0VGXpHicWY-155" value="Make allowance" style="swimlane;rounded=1;fillColor=#1ba1e2;strokeColor=#006EAF;fontColor=#ffffff;" vertex="1" parent="d4LDDaHU8f0VGXpHicWY-1">
          <mxGeometry x="308" y="822" width="188" height="671" as="geometry">
            <mxRectangle x="362" y="106" width="89" height="23" as="alternateBounds" />
          </mxGeometry>
        </mxCell>
        <mxCell id="d4LDDaHU8f0VGXpHicWY-156" style="edgeStyle=orthogonalEdgeStyle;orthogonalLoop=1;jettySize=auto;html=1;entryX=0;entryY=0.5;entryDx=0;entryDy=0;rounded=0;curved=1;exitX=0;exitY=0.5;exitDx=0;exitDy=0;dashed=1;labelBackgroundColor=#09555B;strokeColor=#EEEEEE;fontColor=#FFFFFF;" edge="1" parent="d4LDDaHU8f0VGXpHicWY-155">
          <mxGeometry relative="1" as="geometry">
            <mxPoint x="25" y="110.99999999999989" as="sourcePoint" />
          </mxGeometry>
        </mxCell>
        <mxCell id="d4LDDaHU8f0VGXpHicWY-157" value="" style="group;perimeterSpacing=4;strokeWidth=7;" vertex="1" connectable="0" parent="d4LDDaHU8f0VGXpHicWY-155">
          <mxGeometry x="34" y="52" width="120" height="60" as="geometry" />
        </mxCell>
        <mxCell id="d4LDDaHU8f0VGXpHicWY-158" value="" style="rounded=1;whiteSpace=wrap;html=1;shadow=0;glass=0;sketch=0;fillColor=#B1DDF0;strokeColor=#BAC8D3;fontColor=#182E3E;" vertex="1" parent="d4LDDaHU8f0VGXpHicWY-157">
          <mxGeometry width="120" height="60" as="geometry" />
        </mxCell>
        <mxCell id="d4LDDaHU8f0VGXpHicWY-159" value="&lt;font color=&quot;#000000&quot; face=&quot;Verdana&quot;&gt;create contract&lt;/font&gt;" style="text;html=1;strokeColor=none;fillColor=none;align=center;verticalAlign=middle;whiteSpace=wrap;rounded=0;shadow=0;glass=0;sketch=0;fontColor=#182E3E;" vertex="1" parent="d4LDDaHU8f0VGXpHicWY-157">
          <mxGeometry x="7" y="22" width="106" height="16" as="geometry" />
        </mxCell>
        <mxCell id="d4LDDaHU8f0VGXpHicWY-160" value="" style="group;perimeterSpacing=4;strokeColor=none;strokeWidth=7;fontColor=#182E3E;" vertex="1" connectable="0" parent="d4LDDaHU8f0VGXpHicWY-155">
          <mxGeometry x="27" y="129" width="127" height="60" as="geometry" />
        </mxCell>
        <mxCell id="d4LDDaHU8f0VGXpHicWY-161" value="" style="rounded=1;whiteSpace=wrap;html=1;shadow=0;glass=0;sketch=0;fillColor=#B1DDF0;strokeColor=#BAC8D3;fontColor=#182E3E;" vertex="1" parent="d4LDDaHU8f0VGXpHicWY-160">
          <mxGeometry x="7" width="120" height="60" as="geometry" />
        </mxCell>
        <mxCell id="d4LDDaHU8f0VGXpHicWY-162" value="&lt;font color=&quot;#000000&quot; face=&quot;Verdana&quot;&gt;contract.allowance&lt;/font&gt;" style="text;html=1;strokeColor=none;fillColor=none;align=center;verticalAlign=middle;whiteSpace=wrap;rounded=0;shadow=0;glass=0;sketch=0;fontColor=#182E3E;" vertex="1" parent="d4LDDaHU8f0VGXpHicWY-160">
          <mxGeometry x="14" y="22" width="106" height="16" as="geometry" />
        </mxCell>
        <mxCell id="d4LDDaHU8f0VGXpHicWY-217" style="edgeStyle=elbowEdgeStyle;rounded=1;orthogonalLoop=1;jettySize=auto;html=1;strokeColor=#FFFFFF;strokeWidth=2;fontColor=#FFFFFF;" edge="1" parent="d4LDDaHU8f0VGXpHicWY-155" source="d4LDDaHU8f0VGXpHicWY-170" target="d4LDDaHU8f0VGXpHicWY-194">
          <mxGeometry relative="1" as="geometry" />
        </mxCell>
        <mxCell id="d4LDDaHU8f0VGXpHicWY-250" value="Yes" style="edgeLabel;html=1;align=center;verticalAlign=middle;resizable=0;points=[];fontColor=#000000;" vertex="1" connectable="0" parent="d4LDDaHU8f0VGXpHicWY-217">
          <mxGeometry x="-0.3682" relative="1" as="geometry">
            <mxPoint as="offset" />
          </mxGeometry>
        </mxCell>
        <mxCell id="d4LDDaHU8f0VGXpHicWY-170" value="allowance &amp;lt; srcAmount ?" style="rhombus;whiteSpace=wrap;html=1;fillColor=#B1DDF0;strokeColor=#BAC8D3;fontColor=#182E3E;rounded=1;shadow=0;glass=0;sketch=0;" vertex="1" parent="d4LDDaHU8f0VGXpHicWY-155">
          <mxGeometry x="36" y="209" width="116" height="87" as="geometry" />
        </mxCell>
        <mxCell id="d4LDDaHU8f0VGXpHicWY-193" value="" style="group;perimeterSpacing=4;strokeColor=none;strokeWidth=7;fontColor=#182E3E;" vertex="1" connectable="0" parent="d4LDDaHU8f0VGXpHicWY-155">
          <mxGeometry x="18.5" y="324" width="151" height="60" as="geometry" />
        </mxCell>
        <mxCell id="d4LDDaHU8f0VGXpHicWY-194" value="" style="rounded=1;whiteSpace=wrap;html=1;shadow=0;glass=0;sketch=0;fillColor=#B1DDF0;strokeColor=#BAC8D3;fontColor=#182E3E;" vertex="1" parent="d4LDDaHU8f0VGXpHicWY-193">
          <mxGeometry width="151" height="60" as="geometry" />
        </mxCell>
        <mxCell id="d4LDDaHU8f0VGXpHicWY-195" value="&lt;font color=&quot;#000000&quot; face=&quot;Verdana&quot;&gt;contract.estimateGas&lt;br&gt;&lt;/font&gt;" style="text;html=1;strokeColor=none;fillColor=none;align=center;verticalAlign=middle;whiteSpace=wrap;rounded=0;shadow=0;glass=0;sketch=0;fontColor=#182E3E;" vertex="1" parent="d4LDDaHU8f0VGXpHicWY-193">
          <mxGeometry x="8.808333333333334" y="22" width="133.38333333333333" height="16" as="geometry" />
        </mxCell>
        <mxCell id="d4LDDaHU8f0VGXpHicWY-196" value="" style="group;perimeterSpacing=4;strokeColor=none;strokeWidth=7;fontColor=#182E3E;" vertex="1" connectable="0" parent="d4LDDaHU8f0VGXpHicWY-155">
          <mxGeometry x="18.5" y="407" width="151" height="60" as="geometry" />
        </mxCell>
        <mxCell id="d4LDDaHU8f0VGXpHicWY-197" value="" style="rounded=1;whiteSpace=wrap;html=1;shadow=0;glass=0;sketch=0;fillColor=#B1DDF0;strokeColor=#BAC8D3;fontColor=#182E3E;" vertex="1" parent="d4LDDaHU8f0VGXpHicWY-196">
          <mxGeometry width="151" height="60" as="geometry" />
        </mxCell>
        <mxCell id="d4LDDaHU8f0VGXpHicWY-198" value="&lt;font color=&quot;#000000&quot; face=&quot;Verdana&quot;&gt;contract.populateTrx&lt;br&gt;&lt;/font&gt;" style="text;html=1;strokeColor=none;fillColor=none;align=center;verticalAlign=middle;whiteSpace=wrap;rounded=0;shadow=0;glass=0;sketch=0;fontColor=#182E3E;" vertex="1" parent="d4LDDaHU8f0VGXpHicWY-196">
          <mxGeometry x="8.808333333333334" y="22" width="133.38333333333333" height="16" as="geometry" />
        </mxCell>
        <mxCell id="d4LDDaHU8f0VGXpHicWY-205" style="rounded=1;orthogonalLoop=1;jettySize=auto;html=1;strokeColor=#FFFFFF;strokeWidth=2;" edge="1" parent="d4LDDaHU8f0VGXpHicWY-155" source="d4LDDaHU8f0VGXpHicWY-203" target="d4LDDaHU8f0VGXpHicWY-204">
          <mxGeometry relative="1" as="geometry" />
        </mxCell>
        <mxCell id="d4LDDaHU8f0VGXpHicWY-203" value="sign Trx" style="whiteSpace=wrap;html=1;fillColor=#B1DDF0;strokeColor=#BAC8D3;fontColor=#182E3E;rounded=1;shadow=0;glass=0;sketch=0;" vertex="1" parent="d4LDDaHU8f0VGXpHicWY-155">
          <mxGeometry x="30.5" y="497" width="120" height="60" as="geometry" />
        </mxCell>
        <mxCell id="d4LDDaHU8f0VGXpHicWY-204" value="send Trx" style="whiteSpace=wrap;html=1;fillColor=#B1DDF0;strokeColor=#BAC8D3;fontColor=#182E3E;rounded=1;shadow=0;glass=0;sketch=0;" vertex="1" parent="d4LDDaHU8f0VGXpHicWY-155">
          <mxGeometry x="32" y="585" width="120" height="60" as="geometry" />
        </mxCell>
        <mxCell id="d4LDDaHU8f0VGXpHicWY-206" style="edgeStyle=none;rounded=1;orthogonalLoop=1;jettySize=auto;html=1;strokeColor=#FFFFFF;strokeWidth=2;" edge="1" parent="d4LDDaHU8f0VGXpHicWY-155" source="d4LDDaHU8f0VGXpHicWY-197" target="d4LDDaHU8f0VGXpHicWY-203">
          <mxGeometry relative="1" as="geometry" />
        </mxCell>
        <mxCell id="d4LDDaHU8f0VGXpHicWY-210" style="edgeStyle=elbowEdgeStyle;rounded=1;orthogonalLoop=1;jettySize=auto;html=1;strokeColor=#C73500;strokeWidth=2;fillColor=#fa6800;" edge="1" parent="d4LDDaHU8f0VGXpHicWY-155" source="d4LDDaHU8f0VGXpHicWY-194" target="d4LDDaHU8f0VGXpHicWY-203">
          <mxGeometry relative="1" as="geometry">
            <Array as="points">
              <mxPoint x="274" y="440" />
            </Array>
          </mxGeometry>
        </mxCell>
        <mxCell id="d4LDDaHU8f0VGXpHicWY-211" value="&lt;font color=&quot;#ffffff&quot;&gt;approved gas limit&lt;/font&gt;" style="edgeLabel;html=1;align=center;verticalAlign=middle;resizable=0;points=[];labelBackgroundColor=none;" vertex="1" connectable="0" parent="d4LDDaHU8f0VGXpHicWY-210">
          <mxGeometry x="-0.1049" y="2" relative="1" as="geometry">
            <mxPoint x="48" y="5" as="offset" />
          </mxGeometry>
        </mxCell>
        <mxCell id="d4LDDaHU8f0VGXpHicWY-216" style="edgeStyle=elbowEdgeStyle;rounded=1;orthogonalLoop=1;jettySize=auto;html=1;strokeColor=#FFFFFF;strokeWidth=2;fontColor=#FFFFFF;" edge="1" parent="d4LDDaHU8f0VGXpHicWY-155" source="d4LDDaHU8f0VGXpHicWY-161" target="d4LDDaHU8f0VGXpHicWY-170">
          <mxGeometry relative="1" as="geometry" />
        </mxCell>
        <mxCell id="d4LDDaHU8f0VGXpHicWY-218" style="edgeStyle=elbowEdgeStyle;rounded=1;orthogonalLoop=1;jettySize=auto;html=1;strokeColor=#FFFFFF;strokeWidth=2;fontColor=#FFFFFF;" edge="1" parent="d4LDDaHU8f0VGXpHicWY-155" source="d4LDDaHU8f0VGXpHicWY-194" target="d4LDDaHU8f0VGXpHicWY-197">
          <mxGeometry relative="1" as="geometry" />
        </mxCell>
        <mxCell id="d4LDDaHU8f0VGXpHicWY-219" style="edgeStyle=elbowEdgeStyle;rounded=1;orthogonalLoop=1;jettySize=auto;html=1;strokeColor=#FFFFFF;strokeWidth=2;fontColor=#FFFFFF;" edge="1" parent="d4LDDaHU8f0VGXpHicWY-155" source="d4LDDaHU8f0VGXpHicWY-158" target="d4LDDaHU8f0VGXpHicWY-161">
          <mxGeometry relative="1" as="geometry" />
        </mxCell>
        <mxCell id="d4LDDaHU8f0VGXpHicWY-165" style="edgeStyle=entityRelationEdgeStyle;rounded=1;orthogonalLoop=1;jettySize=auto;html=1;strokeColor=#A50040;strokeWidth=2;fillColor=#d80073;" edge="1" parent="d4LDDaHU8f0VGXpHicWY-1" source="d4LDDaHU8f0VGXpHicWY-163" target="d4LDDaHU8f0VGXpHicWY-158">
          <mxGeometry relative="1" as="geometry" />
        </mxCell>
        <mxCell id="d4LDDaHU8f0VGXpHicWY-163" value="ERC20.abi" style="rounded=1;whiteSpace=wrap;html=1;shadow=0;glass=0;sketch=0;fillColor=#B1DDF0;strokeColor=#BAC8D3;fontColor=#182E3E;" vertex="1" parent="d4LDDaHU8f0VGXpHicWY-1">
          <mxGeometry x="544" y="997" width="120" height="24" as="geometry" />
        </mxCell>
        <mxCell id="d4LDDaHU8f0VGXpHicWY-166" style="edgeStyle=elbowEdgeStyle;rounded=1;orthogonalLoop=1;jettySize=auto;html=1;strokeColor=#A50040;strokeWidth=2;fillColor=#d80073;" edge="1" parent="d4LDDaHU8f0VGXpHicWY-1" source="d4LDDaHU8f0VGXpHicWY-25" target="d4LDDaHU8f0VGXpHicWY-158">
          <mxGeometry relative="1" as="geometry">
            <Array as="points">
              <mxPoint x="278" y="734" />
            </Array>
          </mxGeometry>
        </mxCell>
        <mxCell id="d4LDDaHU8f0VGXpHicWY-168" style="edgeStyle=elbowEdgeStyle;rounded=1;orthogonalLoop=1;jettySize=auto;html=1;strokeColor=#FFFFFF;strokeWidth=2;" edge="1" parent="d4LDDaHU8f0VGXpHicWY-1" source="d4LDDaHU8f0VGXpHicWY-167" target="d4LDDaHU8f0VGXpHicWY-161">
          <mxGeometry relative="1" as="geometry">
            <Array as="points">
              <mxPoint x="290" y="890" />
            </Array>
          </mxGeometry>
        </mxCell>
        <mxCell id="d4LDDaHU8f0VGXpHicWY-169" style="edgeStyle=elbowEdgeStyle;rounded=1;orthogonalLoop=1;jettySize=auto;html=1;strokeColor=#FFFFFF;strokeWidth=2;" edge="1" parent="d4LDDaHU8f0VGXpHicWY-1" source="d4LDDaHU8f0VGXpHicWY-28" target="d4LDDaHU8f0VGXpHicWY-161">
          <mxGeometry relative="1" as="geometry">
            <Array as="points">
              <mxPoint x="290" y="835" />
            </Array>
          </mxGeometry>
        </mxCell>
        <mxCell id="d4LDDaHU8f0VGXpHicWY-172" value="output params" style="swimlane;rounded=1;fontFamily=Verdana;fillColor=#008a00;strokeColor=#005700;arcSize=18;fontColor=#ffffff;" vertex="1" parent="d4LDDaHU8f0VGXpHicWY-1">
          <mxGeometry x="721" y="1079" width="198" height="104" as="geometry">
            <mxRectangle x="362" y="106" width="89" height="23" as="alternateBounds" />
          </mxGeometry>
        </mxCell>
        <mxCell id="d4LDDaHU8f0VGXpHicWY-173" style="edgeStyle=orthogonalEdgeStyle;orthogonalLoop=1;jettySize=auto;html=1;entryX=0;entryY=0.5;entryDx=0;entryDy=0;rounded=0;curved=1;exitX=0;exitY=0.5;exitDx=0;exitDy=0;dashed=1;labelBackgroundColor=#09555B;strokeColor=#EEEEEE;fontColor=#FFFFFF;" edge="1" parent="d4LDDaHU8f0VGXpHicWY-172">
          <mxGeometry relative="1" as="geometry">
            <mxPoint x="25" y="110.99999999999989" as="sourcePoint" />
          </mxGeometry>
        </mxCell>
        <mxCell id="d4LDDaHU8f0VGXpHicWY-190" value="approveTrxHash" style="rounded=0;whiteSpace=wrap;html=1;shadow=0;glass=0;sketch=0;fillColor=#B1DDF0;strokeColor=#BAC8D3;fontColor=#182E3E;" vertex="1" parent="d4LDDaHU8f0VGXpHicWY-172">
          <mxGeometry x="39" y="69" width="120" height="24" as="geometry" />
        </mxCell>
        <mxCell id="d4LDDaHU8f0VGXpHicWY-171" value="swapTrxhash" style="rounded=0;whiteSpace=wrap;html=1;shadow=0;glass=0;sketch=0;fillColor=#B1DDF0;strokeColor=#BAC8D3;fontColor=#182E3E;" vertex="1" parent="d4LDDaHU8f0VGXpHicWY-172">
          <mxGeometry x="39" y="33" width="120" height="24" as="geometry" />
        </mxCell>
        <mxCell id="d4LDDaHU8f0VGXpHicWY-199" style="edgeStyle=elbowEdgeStyle;rounded=1;orthogonalLoop=1;jettySize=auto;html=1;strokeColor=#d6b656;strokeWidth=2;fillColor=#fff2cc;" edge="1" parent="d4LDDaHU8f0VGXpHicWY-1" source="d4LDDaHU8f0VGXpHicWY-167" target="d4LDDaHU8f0VGXpHicWY-194">
          <mxGeometry relative="1" as="geometry">
            <Array as="points">
              <mxPoint x="255" y="967" />
            </Array>
          </mxGeometry>
        </mxCell>
        <mxCell id="d4LDDaHU8f0VGXpHicWY-201" style="edgeStyle=elbowEdgeStyle;rounded=1;orthogonalLoop=1;jettySize=auto;html=1;strokeColor=#005700;strokeWidth=2;fillColor=#008a00;" edge="1" parent="d4LDDaHU8f0VGXpHicWY-1" source="d4LDDaHU8f0VGXpHicWY-167" target="d4LDDaHU8f0VGXpHicWY-197">
          <mxGeometry relative="1" as="geometry">
            <Array as="points">
              <mxPoint x="227" y="1027" />
            </Array>
          </mxGeometry>
        </mxCell>
        <mxCell id="d4LDDaHU8f0VGXpHicWY-207" style="edgeStyle=elbowEdgeStyle;rounded=1;orthogonalLoop=1;jettySize=auto;html=1;strokeColor=#C73500;strokeWidth=2;fillColor=#fa6800;" edge="1" parent="d4LDDaHU8f0VGXpHicWY-1" source="d4LDDaHU8f0VGXpHicWY-25" target="d4LDDaHU8f0VGXpHicWY-203">
          <mxGeometry relative="1" as="geometry">
            <Array as="points">
              <mxPoint x="208" y="953" />
            </Array>
          </mxGeometry>
        </mxCell>
        <mxCell id="d4LDDaHU8f0VGXpHicWY-209" style="edgeStyle=elbowEdgeStyle;rounded=1;orthogonalLoop=1;jettySize=auto;html=1;strokeColor=#C73500;strokeWidth=2;fillColor=#fa6800;" edge="1" parent="d4LDDaHU8f0VGXpHicWY-1" source="d4LDDaHU8f0VGXpHicWY-29" target="d4LDDaHU8f0VGXpHicWY-203">
          <mxGeometry relative="1" as="geometry">
            <Array as="points">
              <mxPoint x="208" y="1033" />
            </Array>
          </mxGeometry>
        </mxCell>
        <mxCell id="d4LDDaHU8f0VGXpHicWY-212" style="edgeStyle=elbowEdgeStyle;rounded=1;orthogonalLoop=1;jettySize=auto;html=1;strokeColor=#C73500;strokeWidth=2;fontColor=#FFFFFF;fillColor=#fa6800;" edge="1" parent="d4LDDaHU8f0VGXpHicWY-1" source="d4LDDaHU8f0VGXpHicWY-20" target="d4LDDaHU8f0VGXpHicWY-203">
          <mxGeometry relative="1" as="geometry">
            <Array as="points">
              <mxPoint x="208" y="888" />
            </Array>
          </mxGeometry>
        </mxCell>
        <mxCell id="d4LDDaHU8f0VGXpHicWY-213" style="edgeStyle=elbowEdgeStyle;rounded=1;orthogonalLoop=1;jettySize=auto;html=1;strokeColor=#FFFFFF;strokeWidth=2;fontColor=#FFFFFF;" edge="1" parent="d4LDDaHU8f0VGXpHicWY-1" source="d4LDDaHU8f0VGXpHicWY-204" target="d4LDDaHU8f0VGXpHicWY-190">
          <mxGeometry relative="1" as="geometry">
            <Array as="points">
              <mxPoint x="818" y="1302" />
            </Array>
          </mxGeometry>
        </mxCell>
        <mxCell id="d4LDDaHU8f0VGXpHicWY-214" style="edgeStyle=elbowEdgeStyle;rounded=1;orthogonalLoop=1;jettySize=auto;html=1;strokeColor=#FFFFFF;strokeWidth=2;fontColor=#FFFFFF;" edge="1" parent="d4LDDaHU8f0VGXpHicWY-1" source="d4LDDaHU8f0VGXpHicWY-170" target="d4LDDaHU8f0VGXpHicWY-190">
          <mxGeometry relative="1" as="geometry" />
        </mxCell>
        <mxCell id="d4LDDaHU8f0VGXpHicWY-215" value="empty" style="edgeLabel;html=1;align=center;verticalAlign=middle;resizable=0;points=[];fontColor=#FFFFFF;labelBackgroundColor=none;" vertex="1" connectable="0" parent="d4LDDaHU8f0VGXpHicWY-214">
          <mxGeometry x="-0.0895" y="-1" relative="1" as="geometry">
            <mxPoint x="20" y="12" as="offset" />
          </mxGeometry>
        </mxCell>
        <mxCell id="d4LDDaHU8f0VGXpHicWY-249" value="&lt;font color=&quot;#000000&quot;&gt;No&lt;/font&gt;" style="edgeLabel;html=1;align=center;verticalAlign=middle;resizable=0;points=[];fontColor=#FFFFFF;" vertex="1" connectable="0" parent="d4LDDaHU8f0VGXpHicWY-214">
          <mxGeometry x="-0.7324" relative="1" as="geometry">
            <mxPoint as="offset" />
          </mxGeometry>
        </mxCell>
        <mxCell id="d4LDDaHU8f0VGXpHicWY-247" style="edgeStyle=entityRelationEdgeStyle;rounded=1;orthogonalLoop=1;jettySize=auto;html=1;strokeColor=#82b366;strokeWidth=2;fontColor=#FFFFFF;fillColor=#d5e8d4;" edge="1" parent="d4LDDaHU8f0VGXpHicWY-1" source="d4LDDaHU8f0VGXpHicWY-24" target="d4LDDaHU8f0VGXpHicWY-127">
          <mxGeometry relative="1" as="geometry" />
        </mxCell>
        <mxCell id="d4LDDaHU8f0VGXpHicWY-253" value="not accountig for gas cost" style="shape=callout;whiteSpace=wrap;html=1;perimeter=calloutPerimeter;labelBackgroundColor=none;position2=1;base=22;fillColor=#f8cecc;strokeColor=#b85450;" vertex="1" parent="d4LDDaHU8f0VGXpHicWY-1">
          <mxGeometry x="212" y="1009" width="120" height="67" as="geometry" />
        </mxCell>
      </root>
    </mxGraphModel>
  </diagram>
</mxfile>
